<?xml version="1.0" encoding="UTF-8"?>
<svg version="1.1" viewBox="0 0 1600 1600" width="1280" height="1280" xmlns="http://www.w3.org/2000/svg">
<path transform="translate(788 8.87)" d="m0 0c1.19-0.00129 2.38-0.00258 3.61-0.00391 1.24 0.00387 2.48 0.00773 3.76 0.0117 1.24-0.00387 2.49-0.00773 3.77-0.0117 1.79 0.00193 1.79 0.00193 3.61 0.00391 1.09 0.00113 2.18 0.00226 3.3 0.00342 2.76 0.129 2.76 0.129 5.76 1.13v2c2.97 0.33 5.94 0.66 9 1v2c2.31 0.33 4.62 0.66 7 1v3h5c0.33 0.66 0.66 1.32 1 2 0.99 0.33 1.98 0.66 3 1v3h4v3h2v3h3v3h3v3h3v6h3c0.33 1.98 0.66 3.96 1 6h2c0.186 1.45 0.186 1.45 0.375 2.94 0.206 1.01 0.413 2.02 0.625 3.06 0.66 0.33 1.32 0.66 2 1 0.414 2.72 0.414 2.72 0.625 6.06 0.0748 1.1 0.15 2.21 0.227 3.35 0.049 0.855 0.098 1.71 0.148 2.59h2v18h-2c-0.049 0.855-0.098 1.71-0.148 2.59-0.0748 1.1-0.15 2.21-0.227 3.35-0.104 1.65-0.104 1.65-0.211 3.34-0.137 0.898-0.273 1.8-0.414 2.72-0.66 0.33-1.32 0.66-2 1-0.658 3.03-0.658 3.03-1 6h-3v5c-0.66 0.33-1.32 0.66-2 1-0.33 0.99-0.66 1.98-1 3h-3v3h-3v4h-3v2h-2v3h-4v3h-3v3c-2.97 0.495-2.97 0.495-6 1v2h-6v3c-0.99 0.33-1.98 0.66-3 1-0.33 41.6-0.66 83.2-1 126h-2v6h2v6h44v4h33v-4h4v-3h2c0.124-0.969 0.247-1.94 0.375-2.94 0.206-1.01 0.413-2.02 0.625-3.06 0.66-0.33 1.32-0.66 2-1 0.656-2.53 0.656-2.53 1-5h3v-4h3v-3h3v-5c2.31-0.33 4.62-0.66 7-1v-3h2v-3h4v-2h8v-4h7v-3h33v3h12v4h7v2h7v3h2v3h3v3h3v4h3v3h3c0.186 1.21 0.186 1.21 0.375 2.44 0.206 0.846 0.413 1.69 0.625 2.56 0.66 0.33 1.32 0.66 2 1 0.625 3.06 0.625 3.06 1 6h2c0.33 1.98 0.66 3.96 1 6h2v6h3c1.6 11.2 1.6 22.8 0 34h-2c-0.33 2.97-0.66 5.94-1 9h-2c-0.124 0.969-0.247 1.94-0.375 2.94-0.206 1.01-0.413 2.02-0.625 3.06l-2 1c-0.656 2.53-0.656 2.53-1 5h-3v4h-3v3h-3v3h-3v3h-3v3h-2v3h-5v4h-6v2h-8v3h-46v-3h-7v-2h-6v-4h-2v-3h-4v-3h-3c-0.33-0.99-0.66-1.98-1-3-0.66-0.33-1.32-0.66-2-1v-3h-3c-0.186-1.21-0.186-1.21-0.375-2.44-0.206-0.846-0.413-1.69-0.625-2.56-0.66-0.33-1.32-0.66-2-1v-3h-3v-6h-3c-0.33-1.98-0.66-3.96-1-6h-5v-2h-10v2h-65v158h-2v5h2c0.0561 1.25 0.0561 1.25 0.113 2.52 0.0657 1.09 0.131 2.17 0.199 3.29 0.087 1.62 0.087 1.62 0.176 3.27 0.547 3.12 0.964 4.11 3.51 5.92 1.66 0.356 3.33 0.692 5 1 0.33 0.66 0.66 1.32 1 2 0.825 0.165 1.65 0.33 2.5 0.5 0.825 0.165 1.65 0.33 2.5 0.5 0.33 0.66 0.66 1.32 1 2 2.32 0.407 4.66 0.744 7 1v3h5v3h6v3h4v4h5v2h6v3c1.98 0.33 3.96 0.66 6 1v2h4v3c1.98 0.33 3.96 0.66 6 1v2c1.98 0.33 3.96 0.66 6 1v3h6v3h3c0.33 0.66 0.66 1.32 1 2 2.53 0.656 2.53 0.656 5 1v3h4v3h6v3h3v3h6v4h6v2h6v3c1.98 0.33 3.96 0.66 6 1v2c1.32 0.33 2.64 0.66 4 1v2c1.98 0.33 3.96 0.66 6 1v2h6v-3h4v-3h2v-3h3v-3h3v-2h6v-4h3v-3h4v-3h3v-3c1.65-0.33 3.3-0.66 5-1v-2h4v-3h3v-3h4v-3c1.65-0.33 3.3-0.66 5-1 0.33-0.99 0.66-1.98 1-3h2v-2c1.98-0.33 3.96-0.66 6-1v-3h4v-3h3v-2h6v-4h3v-3h3v-3h7v-3h2v-3h6v-3c0.99-0.33 1.98-0.66 3-1 0.33-0.66 0.66-1.32 1-2 2.56-0.625 2.56-0.625 5-1 0.33-0.99 0.66-1.98 1-3h3v-2c1.65-0.33 3.3-0.66 5-1 0.33-0.99 0.66-1.98 1-3h3v-3h3v-3h7v-2h2v-4c0.99-0.33 1.98-0.66 3-1 0.33-0.66 0.66-1.32 1-2h5v-3h3v-3h4v-3c0.804-0.124 1.61-0.248 2.44-0.375 0.846-0.206 1.69-0.412 2.56-0.625 0.33-0.66 0.66-1.32 1-2h3v-3c1.65-0.33 3.3-0.66 5-1 0.33-0.99 0.66-1.98 1-3h3v-2h4v-3c1.65-0.33 3.3-0.66 5-1v-3h3v-3h4v-2h3v-4h5v-3h3c0.33-1.98 0.66-3.96 1-6h3v-120h-3c-0.33-0.99-0.66-1.98-1-3-1.65-0.33-3.3-0.66-5-1v-3h-4v-3h-5c-0.33-0.66-0.66-1.32-1-2-0.99-0.33-1.98-0.66-3-1v-3h-3v-3h-2v-3h-4v-3h-3v-6h-3c-0.33-0.99-0.66-1.98-1-3-0.66-0.33-1.32-0.66-2-1v-8h-3c-0.33-4.29-0.66-8.58-1-13h-2v-21h2c0.33-3.96 0.66-7.92 1-12h3v-7h3v-6h3v-5h3v-4h4v-3h2v-3h3v-3h6v-3c0.99-0.33 1.98-0.66 3-1 0.33-0.66 0.66-1.32 1-2h6v-3c3.96-0.33 7.92-0.66 12-1v-2h33c0.33 0.66 0.66 1.32 1 2 2.13 0.467 2.13 0.467 4.56 0.625 0.826 0.0748 1.65 0.15 2.5 0.227 0.638 0.049 1.28 0.098 1.93 0.148v3h6v3h3v2c1.98 0.33 3.96 0.66 6 1v3h3v3h3v3h3c0.33 1.98 0.66 3.96 1 6h2v3h3c0.33 1.98 0.66 3.96 1 6h2c0.33 2.97 0.66 5.94 1 9 0.99 0.33 1.98 0.66 3 1v9h2c1.16 2.32 1.13 3.67 1.13 6.25 0.00129 0.837 0.00258 1.67 0.00391 2.54-0.00387 0.876-0.00773 1.75-0.0117 2.65 0.0058 1.31 0.0058 1.31 0.0117 2.64-0.00129 0.839-0.00258 1.68-0.00391 2.54-0.00169 1.15-0.00169 1.15-0.00342 2.33-0.129 2.05-0.129 2.05-1.13 5.05h-2v9c-0.99 0.33-1.98 0.66-3 1v5c-0.99 0.33-1.98 0.66-3 1-0.33 1.98-0.66 3.96-1 6h-2c-0.33 1.98-0.66 3.96-1 6h-3v3h-3v3h-3v3h-3v3h-3v3h-6v3c-1.98 0.33-3.96 0.66-6 1-0.33 0.99-0.66 1.98-1 3h-2v114h274v-4h3v-6h3v-3h2c0.33-1.65 0.66-3.3 1-5h4v-4h2v-3h3v-3h3v-3h4v-3c0.804-0.124 1.61-0.248 2.44-0.375 0.846-0.206 1.69-0.412 2.56-0.625 0.33-0.66 0.66-1.32 1-2h6v-3c3.63-0.33 7.26-0.66 11-1v-2h31v2c3.3 0.33 6.6 0.66 10 1v2c1.98 0.33 3.96 0.66 6 1v3h6v3h3v3h4v3h3v3h3v4h2v2h3c0.33 1.98 0.66 3.96 1 6h3v3c0.99 0.33 1.98 0.66 3 1v6h3v8h3v32h-3c0.0206 0.949 0.0412 1.9 0.0625 2.88-0.0625 3.12-0.0625 3.12-1.06 5.12h-2v4h-3c-0.33 1.98-0.66 3.96-1 6h-2v4h-3c-0.33 1.65-0.66 3.3-1 5h-3v3h-3v3h-3v3c-0.804 0.124-1.61 0.248-2.44 0.375-0.846 0.206-1.69 0.412-2.56 0.625-0.33 0.66-0.66 1.32-1 2h-3v3c-2.97 0.33-5.94 0.66-9 1v2c-2.97 0.33-5.94 0.66-9 1v2c-6.34 1.14-12.6 1.15-19 1.12l-3.2 0.0117c-5.38-0.00674-10.5-0.189-15.8-1.14v-2c-2.97-0.33-5.94-0.66-9-1v-2c-1.98-0.33-3.96-0.66-6-1v-3h-3v-2c-0.743-0.0619-1.48-0.124-2.25-0.188-3.62-1.07-4.74-2.68-6.75-5.81v-3h-2v-4h-4v-6h-3v-4h-3c-0.103-0.763-0.206-1.53-0.312-2.31-0.762-2.98-1.29-3.84-3.69-5.69-2.29-0.446-2.29-0.446-4.88-0.369-1.01-0.00597-2.03-0.0119-3.07-0.0181-1.12 0.00874-2.23 0.0175-3.38 0.0265-1.18-0.00256-2.37-0.00513-3.58-0.00777-3.29-0.0041-6.58 0.00531-9.86 0.0203-3.54 0.0129-7.09 0.00857-10.6 0.00629-6.14-0.00157-12.3 0.00785-18.4 0.0247-8.88 0.0244-17.8 0.0322-26.6 0.036-14.4 0.00657-28.8 0.0265-43.2 0.0549-14 0.0275-28 0.0488-42 0.0615-1.29 0.00118-1.29 0.00118-2.61 0.00239-4.33 0.00392-8.65 0.00771-13 0.0114-35.9 0.0311-71.8 0.084-108 0.151v2c-1.98 0.33-3.96 0.66-6 1v3h-3v3h-3v3h-5v4h-4v2h-6v3h-3v3h-4v3c-0.804 0.124-1.61 0.248-2.44 0.375-0.846 0.206-1.69 0.412-2.56 0.625-0.33 0.66-0.66 1.32-1 2h-3v3c-0.804 0.124-1.61 0.248-2.44 0.375-0.846 0.206-1.69 0.412-2.56 0.625-0.33 0.66-0.66 1.32-1 2h-3v3c-1.65 0.33-3.3 0.66-5 1v3h-4c-0.33 0.99-0.66 1.98-1 3h-3v2c-1.65 0.33-3.3 0.66-5 1v3h-4v4h-3v2h-5v3h-4v3h-3v3h-6v3h-2v3c-0.959 0.186-0.959 0.186-1.94 0.375-0.681 0.206-1.36 0.412-2.06 0.625-0.33 0.66-0.66 1.32-1 2h-5v3c-0.99 0.33-1.98 0.66-3 1-0.495 0.516-0.99 1.03-1.5 1.56-1.5 1.44-1.5 1.44-4.5 1.44-0.33 0.99-0.66 1.98-1 3h-3v3h-3v3h-3v4h-6v2h-3v3h-6v3h-3v3h-4v3h-5v3c-0.99 0.33-1.98 0.66-3 1-0.33 0.66-0.66 1.32-1 2-2.56 0.625-2.56 0.625-5 1v2c-0.99 0.33-1.98 0.66-3 1-0.33 0.66-0.66 1.32-1 2-3.06 0.625-3.06 0.625-6 1v2c-1.65 0.33-3.3 0.66-5 1v3h-5c0.33 2.31 0.66 4.62 1 7h4v2h5v3c1.98 0.33 3.96 0.66 6 1v2h3v3c0.969 0.124 1.94 0.248 2.94 0.375 1.01 0.206 2.02 0.412 3.06 0.625 0.33 0.66 0.66 1.32 1 2 0.825 0.165 1.65 0.33 2.5 0.5 0.825 0.165 1.65 0.33 2.5 0.5 0.33 0.66 0.66 1.32 1 2 0.825 0.165 1.65 0.33 2.5 0.5 0.825 0.165 1.65 0.33 2.5 0.5 0.33 0.66 0.66 1.32 1 2 0.99 0.33 1.98 0.66 3 1v3h6v3h6v3h4v2c1.21 0.186 1.21 0.186 2.44 0.375 0.846 0.206 1.69 0.412 2.56 0.625 0.33 0.66 0.66 1.32 1 2 2.53 0.656 2.53 0.656 5 1v4h4v2h5c0.33 1.98 0.66 3.96 1 6h3v127h4v3l122-1c-0.0116-12.4-0.0232-24.8-0.0352-37.5-0.00511-7.82-0.00996-15.6-0.0137-23.5-0.00594-12.4-0.0129-24.9-0.0266-37.3-0.00995-9.05-0.0164-18.1-0.0186-27.2-0.00131-4.8-0.00438-9.59-0.0116-14.4-0.00677-4.51-0.00888-9.02-0.00738-13.5-2.76e-4 -1.66-0.00227-3.32-0.0061-4.97-0.00495-2.26-0.00379-4.52-0.00105-6.78-9.22e-4 -1.27-0.00184-2.53-0.00279-3.84 0.123-3.06 0.123-3.06 1.12-6.06h2v-12h3v-3c1.45-0.186 1.45-0.186 2.94-0.375 1.01-0.206 2.02-0.412 3.06-0.625 0.33-0.66 0.66-1.32 1-2 19.1-0.994 38.2-1.13 57.3-1.07 3.82 0.0105 7.63 0.0148 11.4 0.0198 7.41 0.0105 14.8 0.0275 22.2 0.0488 0.33-0.66 0.66-1.32 1-2 2.56-0.625 2.56-0.625 5-1 0.33-1.98 0.66-3.96 1-6h3v-6h4v-3h2v-5h3v-4h3v-3h3v-3c0.99-0.33 1.98-0.66 3-1 0.33-0.66 0.66-1.32 1-2 2.56-0.625 2.56-0.625 5-1v-2h4v-3c2.97-0.33 5.94-0.66 9-1v-2c6.46-0.823 12.7-1.16 19.2-1.12 1.37 0.0029 1.37 0.0029 2.76 0.00586 7.03 0.0448 14 0.392 21 1.12v3h6c0.33 0.66 0.66 1.32 1 2 2.53 0.656 2.53 0.656 5 1v3h4v2c1.65 0.33 3.3 0.66 5 1v3h3v3h3c0.33 1.98 0.66 3.96 1 6h3v3c0.99 0.33 1.98 0.66 3 1v5h3v4h3v9h4v16h2v11h-2v13h-4c0.0206 0.949 0.0412 1.9 0.0625 2.88-0.0625 3.12-0.0625 3.12-1.06 5.12h-2v4h-3v6h-3v3h-3c-0.33 1.32-0.66 2.64-1 4h-2c-0.33 1.65-0.66 3.3-1 5-1.65 0.33-3.3 0.66-5 1v2c-0.99 0.33-1.98 0.66-3 1-0.33 0.66-0.66 1.32-1 2h-3v3c-1.14 0.155-1.14 0.155-2.31 0.312-2.72 0.426-2.72 0.426-4.06 2.25-2.61 2.31-5.29 1.63-8.62 1.44v2c-3.53 1.09-6.81 1.13-10.5 1.13-1.26 0.00129-2.53 0.00258-3.83 0.00391-1.32-0.00387-2.64-0.00773-3.99-0.0117-1.31 0.00387-2.61 0.00773-3.96 0.0117l-3.84-0.00391c-1.15-0.00113-2.31-0.00226-3.49-0.00342-3.52-0.134-6.91-0.572-10.4-1.13v-2c-2.97-0.33-5.94-0.66-9-1v-2l-2.94-0.375c-1.01-0.206-2.02-0.412-3.06-0.625-0.33-0.66-0.66-1.32-1-2-0.99-0.33-1.98-0.66-3-1v-2c-0.99-0.33-1.98-0.66-3-1v-2c-0.99-0.33-1.98-0.66-3-1v-2c-0.99-0.33-1.98-0.66-3-1v-3h-3v-3h-2v-5h-4v-7h-3c-0.33-0.99-0.66-1.98-1-3-0.66-0.33-1.32-0.66-2-1v-3h-4v-2h-2v2c-18.5 0.33-37 0.66-56 1v126h-2v7h2v2h-2v6h2c0 3 0 3-1.5 4.69-0.495 0.433-0.99 0.866-1.5 1.31h3c0.33 0.99 0.66 1.98 1 3h215v-2c1.65-0.33 3.3-0.66 5-1 0.33-1.98 0.66-3.96 1-6h3v-6h3v-2h4v-7h2v-3h3v-3h3v-3c0.99-0.33 1.98-0.66 3-1 0.33-0.66 0.66-1.32 1-2 2.56-0.625 2.56-0.625 5-1v-2c2.31-0.33 4.62-0.66 7-1v-2c2.97-0.33 5.94-0.66 9-1v-2c7.45-1.07 14.6-0.939 22.1-0.562 1.15 0.0522 2.3 0.104 3.49 0.158 2.82 0.129 5.63 0.263 8.45 0.404v2c2.97 0.33 5.94 0.66 9 1v2c1.98 0.33 3.96 0.66 6 1v2c1.98 0.33 3.96 0.66 6 1v3h3v3h3c1.38 1.63 2.71 3.3 4 5l2 1v3h3v4h3c0.33 1.65 0.66 3.3 1 5 0.99 0.33 1.98 0.66 3 1v5h3v4h3v9h3v31h-3c0.0206 0.949 0.0412 1.9 0.0625 2.88-0.0625 3.13-0.0625 3.13-1.06 5.12h-2v4h-3c-0.33 1.98-0.66 3.96-1 6h-2v3h-3c-0.33 1.98-0.66 3.96-1 6h-3v3h-3v3h-3v3h-3v3c-1.98 0.33-3.96 0.66-6 1v2h-3v3c-2.97 0.33-5.94 0.66-9 1v2c-4.29 0.33-8.58 0.66-13 1v2h-24v-2c-3.96-0.33-7.92-0.66-12-1v-2c-2.31-0.33-4.62-0.66-7-1v-3h-5v-3h-3c-0.33-0.66-0.66-1.32-1-2-0.99-0.33-1.98-0.66-3-1v-3h-3v-5h-2v-3h-4v-5h-3l-0.375-2.44c-0.206-0.846-0.412-1.69-0.625-2.56-0.66-0.33-1.32-0.66-2-1v-5h-3c-0.33-0.99-0.66-1.98-1-3h-217c-0.33 0.99-0.66 1.98-1 3h-3c0.491 0.336 0.982 0.673 1.49 1.02 2.28 2.99 1.83 6.07 1.7 9.67-0.0135 0.702-0.0271 1.4-0.041 2.13-0.0353 1.73-0.0891 3.46-0.146 5.19h-2v9h2v3h-2v7h2v33h-2v12h2v41h-2v13h2v11h61c0.33-0.99 0.66-1.98 1-3h3v-6h3v-6h4v-6h2v-3h3v-3h3v-3h3v-3h3v-3c1.98-0.33 3.96-0.66 6-1v-2c1.98-0.33 3.96-0.66 6-1 0.33-0.99 0.66-1.98 1-3h9v-2c3.65-1.14 7.08-1.13 10.9-1.13 0.655-9.57e-4 1.31-0.00191 1.99-0.0029 1.38-6.78e-4 2.76 0.00115 4.14 0.00534 2.12 0.00537 4.23 3.46e-5 6.35-0.00635 1.34 6.61e-4 2.68 0.00194 4.03 0.00391 1.22 0.00113 2.44 0.00226 3.7 0.00342 2.92 0.129 2.92 0.129 4.92 1.13v2c1.92-0.0309 1.92-0.0309 3.88-0.0625 3.88-0.0625 3.88-0.0625 6.12 1.06v2c1.98 0.33 3.96 0.66 6 1v2c1.32 0.33 2.64 0.66 4 1v2c1.65 0.33 3.3 0.66 5 1v3h3v3h3v3h3c0.33 1.98 0.66 3.96 1 6h3v7h3v5h3v7h4v15h2v9h-2v15h-4v7h-3v5c-0.99 0.33-1.98 0.66-3 1-0.33 1.98-0.66 3.96-1 6h-2c-0.33 0.99-0.66 1.98-1 3h-2v3h-3c-0.33 1.98-0.66 3.96-1 6h-5v3h-4v3c-1.65 0.33-3.3 0.66-5 1v2h-4v3c-3.96 0.33-7.92 0.66-12 1v2h-37v-2c-2.97-0.33-5.94-0.66-9-1v-3h-6v-3h-3c-0.33-0.66-0.66-1.32-1-2-0.99-0.33-1.98-0.66-3-1v-3h-3v-2h-3v-4h-3v-3h-2v-6h-4v-6h-3v-4h-3c-0.33-1.65-0.66-3.3-1-5h-5v2c-63.2 1.96-63.2 1.96-90 0v-2c-1.65-0.33-3.3-0.66-5-1-0.33-1.65-0.66-3.3-1-5-0.99-0.33-1.98-0.66-3-1v-9h-2c-1.14-3.43-1.12-6.05-1.12-9.66-8.54e-4 -0.68-0.00171-1.36-0.00259-2.06-0.00165-2.28 0.00386-4.57 0.00932-6.85 2.82e-4 -1.64 1.24e-4 -3.27-4.43e-4 -4.91-2.87e-4 -4.45 0.0056-8.89 0.0126-13.3 0.00624-4.64 0.00684-9.29 0.00803-13.9 0.00311-8.8 0.0113-17.6 0.0213-26.4 0.0112-10 0.0167-20 0.0217-30 0.0105-20.6 0.0281-41.2 0.0503-61.8 0.99-0.33 1.98-0.66 3-1v-2h-3v-4l-122 1v2h-4v13h-3v9h-3v3h-4v3h-18v-2c-2.64-0.33-5.28-0.66-8-1v-3h-7c-0.33-7.92-0.66-15.8-1-24h-2v-108h2c0.33-12.2 0.66-24.4 1-37h-3c-0.33-0.99-0.66-1.98-1-3-0.66-0.33-1.32-0.66-2-1v-2h-3v-3c-1.98-0.33-3.96-0.66-6-1v-2c-1.32-0.33-2.64-0.66-4-1v-2c-1.98-0.33-3.96-0.66-6-1v-2c-1.98-0.33-3.96-0.66-6-1v-3h-2v-2c-2.31-0.33-4.62-0.66-7-1v-3h-6v-3h-4v-3h-5v-2h-6v-4h-4v-3h-6v-3h-6v-3c-0.969-0.124-1.94-0.248-2.94-0.375-1.01-0.206-2.02-0.412-3.06-0.625-0.33-0.66-0.66-1.32-1-2-2.53-0.656-2.53-0.656-5-1v-3h-4v-2c-1.98-0.33-3.96-0.66-6-1v-3h-5c-0.33-0.66-0.66-1.32-1-2-0.784-0.144-1.57-0.289-2.38-0.438-2.9-0.622-3.89-1.19-5.62-3.56v-3h-7v-3h-6v-2h-4v-4h-5c-0.33-0.99-0.66-1.98-1-3h-5v-3c-1.98-0.33-3.96-0.66-6-1v-2c-1.32-0.33-2.64-0.66-4-1v-2c-1.98-0.33-3.96-0.66-6-1v-2c-1.98-0.33-3.96-0.66-6-1v-3h-6v-3h-6v-3h-4v-3h-6v-3h-6v-3h-6v-2h-6v-4h-3v-3h-6v-3c-1.32-0.33-2.64-0.66-4-1v-2c-1.98-0.33-3.96-0.66-6-1v-2c-0.99-0.33-1.98-0.66-3-1v-2c-1.98-0.33-3.96-0.66-6-1v-2h-9v2h-3v3c-0.99 0.33-1.98 0.66-3 1-0.33 0.66-0.66 1.32-1 2-2.56 0.625-2.56 0.625-5 1-0.33 0.99-0.66 1.98-1 3h-5c-0.33 0.99-0.66 1.98-1 3h-3v3h-6v4h-5v2h-4v3c-1.45 0.186-1.45 0.186-2.94 0.375-1.01 0.206-2.02 0.412-3.06 0.625-0.33 0.66-0.66 1.32-1 2h-5v3c-1.45 0.186-1.45 0.186-2.94 0.375-1.01 0.206-2.02 0.412-3.06 0.625-0.33 0.66-0.66 1.32-1 2-1.67 0.333-3.33 0.667-5 1-0.33 0.66-0.66 1.32-1 2h-3v3h-6v3c-1.98 0.33-3.96 0.66-6 1v2c-1.98 0.33-3.96 0.66-6 1v3h-4v2c-1.98 0.33-3.96 0.66-6 1v3h-6v4h-5v2h-4v3h-5v3h-7v3c-1.98 0.33-3.96 0.66-6 1v2h-4v3c-0.804 0.124-1.61 0.248-2.44 0.375-0.846 0.206-1.69 0.412-2.56 0.625-0.33 0.66-0.66 1.32-1 2-3.06 0.625-3.06 0.625-6 1v2c-1.98 0.33-3.96 0.66-6 1v2c-1.65 0.33-3.3 0.66-5 1v3h-4v2c-1.98 0.33-3.96 0.66-6 1v3h-6v4h-4v2h-6v3c-0.804 0.124-1.61 0.248-2.44 0.375-0.846 0.206-1.69 0.412-2.56 0.625-0.33 0.66-0.66 1.32-1 2h-3v3h-5v3h-4v3c-1.45 0.186-1.45 0.186-2.94 0.375-1.01 0.206-2.02 0.412-3.06 0.625-0.33 0.66-0.66 1.32-1 2-1.67 0.333-3.33 0.667-5 1-0.33 0.66-0.66 1.32-1 2-3.06 0.625-3.06 0.625-6 1v2c-1.65 0.33-3.3 0.66-5 1-0.33 0.99-0.66 1.98-1 3h-3v3h-3v268h3v3h3v3h6v3h6v3h4v3h6v4h7v2h2v3h6v3c1.98 0.33 3.96 0.66 6 1v2c0.969 0.124 1.94 0.248 2.94 0.375 1.01 0.206 2.02 0.412 3.06 0.625 0.33 0.66 0.66 1.32 1 2 0.99 0.33 1.98 0.66 3 1v2c1.98 0.33 3.96 0.66 6 1v3h6v3h6v3h6v3h3c0.33 0.66 0.66 1.32 1 2 3.03 0.658 3.03 0.658 6 1v3h6v4h6v2c1.65 0.33 3.3 0.66 5 1v2h5v3h5v3c0.969 0.124 1.94 0.248 2.94 0.375 1.01 0.206 2.02 0.412 3.06 0.625 0.33 0.66 0.66 1.32 1 2 2.53 0.656 2.53 0.656 5 1v3h4v2c1.98 0.33 3.96 0.66 6 1v3h6v3h3v2c1.98 0.33 3.96 0.66 6 1v3h6v3h6v4h4v2h6v3h5c0.33 0.99 0.66 1.98 1 3 0.804 0.124 1.61 0.248 2.44 0.375 0.846 0.206 1.69 0.412 2.56 0.625 0.33 0.66 0.66 1.32 1 2 2.02 0.652 2.02 0.652 4 1v2c1.65 0.33 3.3 0.66 5 1v3h3v2c1.98 0.33 3.96 0.66 6 1v3h4v2c1.98 0.33 3.96 0.66 6 1v2c1.98 0.33 3.96 0.66 6 1v3h6v3h6v-3h6v-3h4v-3c0.804-0.124 1.61-0.248 2.44-0.375 0.846-0.206 1.69-0.412 2.56-0.625 0.33-0.66 0.66-1.32 1-2 1.67-0.333 3.33-0.667 5-1 0.33-0.66 0.66-1.32 1-2 3.06-0.625 3.06-0.625 6-1v-2h3v-3c2.31-0.33 4.62-0.66 7-1v-2c4.35-4 4.35-4 8-4 0.33-0.99 0.66-1.98 1-3h5c0.33-0.99 0.66-1.98 1-3h5v-2h4v-4h6v-3h6v-3c1.98-0.33 3.96-0.66 6-1v-2h3v-3h6v-3c1.98-0.33 3.96-0.66 6-1v-2c0.99-0.33 1.98-0.66 3-1 0.33-0.66 0.66-1.32 1-2 3.06-0.625 3.06-0.625 6-1v-2c1.98-0.33 3.96-0.66 6-1v-3h7v-3h2v-3h6v-2h6v-4h6v-3h4v-3h6v-3h6v-3h6v-3c1.98-0.33 3.96-0.66 6-1v-2c0.99-0.33 1.98-0.66 3-1 0.33-0.66 0.66-1.32 1-2 3.06-0.625 3.06-0.625 6-1v-2c1.65-0.33 3.3-0.66 5-1 0.33-0.99 0.66-1.98 1-3h3v-2c1.98-0.33 3.96-0.66 6-1v-3h7v-2h5v-4h4v-3h5v-3h4v-3h6v-3c1.98-0.33 3.96-0.66 6-1v-2h3v-3h7v-3c2.64-0.33 5.28-0.66 8-1v-2c1.42-0.197 2.83-0.382 4.25-0.562 0.789-0.104 1.58-0.209 2.39-0.316 2.36-0.121 4.11 0.183 6.36 0.879v2c0.763 0.103 1.53 0.206 2.31 0.312 2.97 0.76 3.96 1.18 5.69 3.69 0.688 3.19 0.688 3.19 1 6h3v3h3v18h-3v3h-3v3c-0.99 0.33-1.98 0.66-3 1-0.33 0.66-0.66 1.32-1 2-2.56 0.625-2.56 0.625-5 1v2h-4v3c-1.21 0.186-1.21 0.186-2.44 0.375-0.846 0.206-1.69 0.412-2.56 0.625-0.33 0.66-0.66 1.32-1 2-3.06 0.625-3.06 0.625-6 1v3h-3v2c-1.98 0.33-3.96 0.66-6 1v3h-6v3h-6v4h-4v2h-6v3l-6.15 0.586c-0.61 0.137-1.22 0.273-1.85 0.414-0.33 0.66-0.66 1.32-1 2h-5v3c-2.31 0.33-4.62 0.66-7 1v2h3v4h4v3h2v2c1.98 0.33 3.96 0.66 6 1v3h3v3h3c0.33 0.66 0.66 1.32 1 2 2.53 0.656 2.53 0.656 5 1v3h3v4h4v2h5c0.33 0.99 0.66 1.98 1 3h3v3h4v3c1.65 0.33 3.3 0.66 5 1v3h3c1.69 1.37 1.69 1.37 3 3v2c1.98 0.33 3.96 0.66 6 1v3h4v3h5v3h4v3h3v3h7v4h2v2c1.98 0.33 3.96 0.66 6 1v2h3v3h3v3c0.908 0.0619 1.82 0.124 2.75 0.188 4.03 1.01 4.87 2.53 7.25 5.81 0.99 0.33 1.98 0.66 3 1v2c1.21 0.186 1.21 0.186 2.44 0.375 1.27 0.309 1.27 0.309 2.56 0.625 0.33 0.66 0.66 1.32 1 2 0.99 0.33 1.98 0.66 3 1v3h4v3h5v3h3v3h6v4h3v2h4v3c1.65 0.33 3.3 0.66 5 1v2c1.32 0.33 2.64 0.66 4 1v2c1.98 0.33 3.96 0.66 6 1v3h4v3h2v2c1.98 0.33 3.96 0.66 6 1v3h3c0.33 0.66 0.66 1.32 1 2 1.86 0.39 1.86 0.39 4 0.5 2.19 0.156 2.19 0.156 4 0.5 0.33 0.66 0.66 1.32 1 2 94.4 0.33 189 0.66 286 1v-6h3v-3h3v-6h3v-4h4v-3h2v-3h3v-3h3v-2h3v-4h6v-3h6v-3h7v-3h39c0.33 0.66 0.66 1.32 1 2 2.36 0.468 2.36 0.468 5.06 0.625 0.919 0.0748 1.84 0.15 2.79 0.227 0.71 0.049 1.42 0.098 2.15 0.148v3h5v3h3v4h6v2h3c0.33 0.99 0.66 1.98 1 3 0.825 0.619 1.65 1.24 2.5 1.88 2.82 2.4 3.2 3.52 3.5 7.12h2c0.33 0.99 0.66 1.98 1 3 0.66 0.33 1.32 0.66 2 1 0.625 3.06 0.625 3.06 1 6h3v6h3v6h3v34h-3v6h-3v6h-3c-0.0619 0.908-0.124 1.82-0.188 2.75-1.02 4.08-2.46 4.84-5.81 7.25-0.66 0.825-1.32 1.65-2 2.5-2.1 2.63-4.38 4.4-7 6.5-0.639 0.887-1.28 1.77-1.94 2.69-2.58 2.89-4.28 3.05-8.06 3.31v3h-5v3h-7v3h-12v4h-28v-4h-12v-3c-1.98-0.33-3.96-0.66-6-1v-2c-1.32-0.33-2.64-0.66-4-1v-2c-0.99-0.33-1.98-0.66-3-1v-2c-0.99-0.33-1.98-0.66-3-1v-3h-3v-3h-2v-3h-4v-5h-3c-0.33-2.31-0.66-4.62-1-7h-2v-2h-3c-0.103-0.639-0.206-1.28-0.312-1.94-0.227-0.681-0.454-1.36-0.688-2.06-0.99-0.33-1.98-0.66-3-1v-2h-14v2h-16v-2h-10v2h-2v-2h-10v2h-3v-2h-8v2h-60v-2h-6v2h-9v-2h-5v2c-42.3 0.88-84.6 1.09-127 1v114h3v2c1.98 0.33 3.96 0.66 6 1v3h3v4h6v2h3v3h3v3h3c0.33 0.99 0.66 1.98 1 3 0.66 0.33 1.32 0.66 2 1 0.625 2.56 0.625 2.56 1 5h2c0.33 1.98 0.66 3.96 1 6 0.99 0.33 1.98 0.66 3 1v6h2c0.961 2.88 1.11 4.7 1.06 7.69-0.0135 1.21-0.0135 1.21-0.0273 2.45-0.0116 0.615-0.0232 1.23-0.0352 1.86h2c1.24 3.72 1.15 7.19 1.12 11.1 0.0058 1.1 0.0058 1.1 0.0117 2.22-0.01 5.46-0.01 5.46-1.14 7.72h-2c0.0116 0.687 0.0232 1.37 0.0352 2.08 0.0135 1.35 0.0135 1.35 0.0273 2.73 0.0116 0.893 0.0232 1.79 0.0352 2.71-0.0977 2.48-0.0977 2.48-1.1 5.48h-2c-0.33 1.98-0.66 3.96-1 6h-2c-0.103 0.928-0.206 1.86-0.312 2.81-0.693 3.21-1.08 4.31-3.69 6.19h-2c-0.33 1.98-0.66 3.96-1 6h-3v3h-3v3h-3v3c-1.98 0.33-3.96 0.66-6 1v3h-3v2c-2.96 1.48-5.74 1.06-9 1v3h-12v4h-25v-4h-15v-3h-6c-0.33-0.99-0.66-1.98-1-3-1.21-0.186-1.21-0.186-2.44-0.375-1.27-0.309-1.27-0.309-2.56-0.625-0.33-0.66-0.66-1.32-1-2-0.99-0.33-1.98-0.66-3-1v-3h-3v-3h-2v-3h-4c-0.33-1.65-0.66-3.3-1-5h-2v-4h-3v-6h-3v-6h-3c-0.33-4.29-0.66-8.58-1-13h-2v-27h3v-6c0.66-0.33 1.32-0.66 2-1 0.465-1.9 0.465-1.9 0.625-4.06 0.124-1.3 0.247-2.6 0.375-3.94h3v-4h3v-5h3v-4h4v-3h2v-3h6v-2h3v-4h6v-3h4v-3h3v-3h2c0.33-40.6 0.66-81.2 1-123h-3c-0.33-0.99-0.66-1.98-1-3-0.99-0.33-1.98-0.66-3-1v-2c-1.65-0.33-3.3-0.66-5-1v-3h-4v-3h-3v-3h-6v-3h-2v-3h-4v-2h-6v-4h-3v-3c-1.32-0.33-2.64-0.66-4-1v-2c-0.743-0.0619-1.48-0.124-2.25-0.188-3.58-1.06-4.55-2.88-6.75-5.81-0.99-0.33-1.98-0.66-3-1v-2c-1.98-0.33-3.96-0.66-6-1v-3h-3v-3h-2v-3h-7v-3h-3v-3h-4v-3h-5v-2h-4v-4h-5v-3c-1.32-0.33-2.64-0.66-4-1v-2h-3v-3c-1.65-0.33-3.3-0.66-5-1v-3h-4v-2c-1.98-0.33-3.96-0.66-6-1v-3h-3v-3h-4v-2c-1.65-0.33-3.3-0.66-5-1v-3h-4v-3h-5v-3h-4v-2h-3v-4h-6v-3h-3v-3c-1.32-0.33-2.64-0.66-4-1v-2c-1.65-0.33-3.3-0.66-5-1v-2h-3v-3c-1.98-0.33-3.96-0.66-6-1v-3h-3c-0.33-0.66-0.66-1.32-1-2-0.99-0.33-1.98-0.66-3-1v-3h-3v-3h-5v-3h-4v-3h-13v3h-5v3h-4v3c-0.804 0.124-1.61 0.248-2.44 0.375-0.846 0.206-1.69 0.412-2.56 0.625-0.33 0.66-0.66 1.32-1 2h-3v3h-5v3c-2.31 0.33-4.62 0.66-7 1v2c-0.99 0.33-1.98 0.66-3 1-0.33 0.66-0.66 1.32-1 2-3.06 0.625-3.06 0.625-6 1v3h-6v3h-5c-0.33 0.99-0.66 1.98-1 3h-3v4h-6v2h-6v3h-6v3c-0.99 0.33-1.98 0.66-3 1-0.33 0.66-0.66 1.32-1 2-1.67 0.333-3.33 0.667-5 1-0.33 0.66-0.66 1.32-1 2-2.56 0.625-2.56 0.625-5 1v2c-2.31 0.33-4.62 0.66-7 1v2c-1.98 0.33-3.96 0.66-6 1v2h-2v3c-2.31 0.33-4.62 0.66-7 1v2c-2.31 0.33-4.62 0.66-7 1v2c-1.65 0.33-3.3 0.66-5 1-0.33 58.7-0.66 117-1 178h77c0.33-1.65 0.66-3.3 1-5 0.66-0.33 1.32-0.66 2-1 0.656-2.53 0.656-2.53 1-5h3v-4h3v-6h3v-3h3v-3h3v-3c1.98-0.33 3.96-0.66 6-1v-2h3v-3c1.98-0.33 3.96-0.66 6-1v-2c2.31-0.33 4.62-0.66 7-1v-2c3.29-1.1 5.74-1.1 9.19-1.06 1.09 0.00902 2.17 0.018 3.29 0.0273 0.831 0.0116 1.66 0.0232 2.52 0.0352v-2h12v2c0.831-0.0116 1.66-0.0232 2.52-0.0352 1.63-0.0135 1.63-0.0135 3.29-0.0273 1.08-0.0116 2.16-0.0232 3.27-0.0352 2.92 0.0977 2.92 0.0977 5.92 1.1v2c0.638 0.049 1.28 0.098 1.93 0.148 1.24 0.112 1.24 0.112 2.5 0.227 1.24 0.104 1.24 0.104 2.5 0.211 0.682 0.137 1.36 0.273 2.07 0.414 0.33 0.66 0.66 1.32 1 2 0.99 0.33 1.98 0.66 3 1v2c2.31 0.33 4.62 0.66 7 1v3h2v3h3v3h3v3h3v3h3v3h3v6h3c0.186 1.45 0.186 1.45 0.375 2.94 0.206 1.01 0.413 2.02 0.625 3.06 0.66 0.33 1.32 0.66 2 1 0.414 2.07 0.414 2.07 0.625 4.56 0.112 1.24 0.112 1.24 0.227 2.5 0.049 0.638 0.098 1.28 0.148 1.93h2c0.893 5.36 1.11 10.6 1.12 16.1 0.00451 0.672 0.00902 1.34 0.0137 2.04-0.0129 4.41-0.428 8.56-1.14 12.9h-2c-0.33 2.97-0.66 5.94-1 9h-2c-0.33 1.98-0.66 3.96-1 6h-2c-0.33 1.98-0.66 3.96-1 6h-3v3h-2c-0.33 2.31-0.66 4.62-1 7h-3v2h-3v3h-3v3h-6v3h-3v3c-2.97 0.33-5.94 0.66-9 1v2c-2.97 0.33-5.94 0.66-9 1v2h-34c-0.33-0.66-0.66-1.32-1-2-2.13-0.467-2.13-0.467-4.56-0.625-1.24-0.112-1.24-0.112-2.5-0.227-0.638-0.049-1.28-0.098-1.93-0.148v-3h-6v-3h-5v-3h-4v-3h-3v-3h-3v-2h-3v-7h-3v-3h-3c-0.186-1.45-0.186-1.45-0.375-2.94-0.206-1.01-0.413-2.02-0.625-3.06-0.66-0.33-1.32-0.66-2-1-0.625-3.06-0.625-3.06-1-6h-3v-3c-6.93 0.33-13.9 0.66-21 1v2h-52c-0.0677 15.6-0.123 31.2-0.155 46.8-0.0155 7.24-0.0366 14.5-0.0709 21.7-0.0299 6.31-0.0493 12.6-0.0559 18.9-0.00392 3.34-0.0131 6.68-0.0349 10-0.0217 3.73-0.0248 7.46-0.0234 11.2-0.0108 1.11-0.0216 2.22-0.0327 3.37 0.00412 1.01 0.00825 2.03 0.0125 3.07-0.00277 0.882-0.00553 1.76-0.00838 2.67 0.451 2.74 1.17 3.59 3.37 5.24 0.99 0.33 1.98 0.66 3 1v2c1.98 0.33 3.96 0.66 6 1v3h7v3h2v3h3v3h3v4h3v2h3v3h3c0.186 1.45 0.186 1.45 0.375 2.94 0.206 1.01 0.413 2.02 0.625 3.06 0.66 0.33 1.32 0.66 2 1 0.333 1.67 0.667 3.33 1 5 0.66 0.33 1.32 0.66 2 1 0.414 2.07 0.414 2.07 0.625 4.56 0.0748 0.826 0.15 1.65 0.227 2.5 0.049 0.638 0.098 1.28 0.148 1.93h2c1.17 9.24 1.17 17.8 0 27h-2c-0.33 3.3-0.66 6.6-1 10h-2c-0.33 1.98-0.66 3.96-1 6h-2c-0.33 1.98-0.66 3.96-1 6h-3v6h-3v3h-3v3h-3v3h-3v3h-2v3c-0.959 0.186-0.959 0.186-1.94 0.375-1.02 0.309-1.02 0.309-2.06 0.625-0.33 0.66-0.66 1.32-1 2h-5v3c-2.97 0.33-5.94 0.66-9 1v2c-4.35 0.84-8.44 1.11-12.9 1.06-1.15-0.00902-2.3-0.018-3.49-0.0273-0.869-0.0116-1.74-0.0232-2.63-0.0352v2h-9v-2c-0.652 0.0116-1.3 0.0232-1.98 0.0352-4.8 0.0496-9.3-0.041-14-1.04v-2c-2.97-0.33-5.94-0.66-9-1v-3h-6v-3h-2v-2c-2.31-0.33-4.62-0.66-7-1v-3h-3v-3h-3v-6h-3v-2h-3c-0.33-2.31-0.66-4.62-1-7h-2c-0.33-1.98-0.66-3.96-1-6h-2c-0.33-3.3-0.66-6.6-1-10h-2c-0.897-6.06-1.11-12-1.12-18.1-0.00677-1.15-0.00677-1.15-0.0137-2.31 0.012-4.62 0.377-9 1.14-13.6h2c0.33-1.98 0.66-3.96 1-6h2c0.33-1.98 0.66-3.96 1-6h2c0.33-1.98 0.66-3.96 1-6h3v-3h3v-2h2v-4h4v-3h3v-3h4v-3h5v-3h6v-3c0.99-0.33 1.98-0.66 3-1 0.33-2.97 0.66-5.94 1-9h2v-9h-2v-52h2v-52c-0.99-0.33-1.98-0.66-3-1v-2h-14v2h-48v-2h-5v2h-6c-0.33 1.32-0.66 2.64-1 4h-2c-0.33 1.98-0.66 3.96-1 6h-3v5c-0.66 0.33-1.32 0.66-2 1-0.33 0.99-0.66 1.98-1 3h-3v4h-3v2h-3v3h-2v3h-4v3h-6v3c-1.45 0.186-1.45 0.186-2.94 0.375-1.52 0.309-1.52 0.309-3.06 0.625-0.33 0.66-0.66 1.32-1 2-2.07 0.414-2.07 0.414-4.56 0.625l-2.5 0.227c-0.638 0.049-1.28 0.098-1.93 0.148v2h-33v-2c-3.3-0.33-6.6-0.66-10-1v-2c-1.26-0.103-2.52-0.206-3.81-0.312-2.65-0.333-3.96-0.532-6.19-2.06-1-1.62-1-1.62-1-4.62h-4v-3h-4v-2c-1.65-0.33-3.3-0.66-5-1v-6h-3v-3h-3c-0.33-1.98-0.66-3.96-1-6h-2c-0.186-1.45-0.186-1.45-0.375-2.94-0.206-1.01-0.413-2.02-0.625-3.06-0.66-0.33-1.32-0.66-2-1-0.414-2.07-0.414-2.07-0.625-4.56-0.0748-0.826-0.15-1.65-0.227-2.5-0.049-0.638-0.098-1.28-0.148-1.93h-2c-1.3-5.95-1.15-11.9-1.12-17.9-0.00387-1.06-0.00773-2.12-0.0117-3.21 0.00673-5.39 0.185-10.5 1.14-15.9h2c0.33-1.98 0.66-3.96 1-6h2c0.33-2.64 0.66-5.28 1-8h3v-4h3v-4h2c0.33-1.65 0.66-3.3 1-5h3v-3c1.98-0.33 3.96-0.66 6-1v-2h4v-3c1.65-0.33 3.3-0.66 5-1v-2c1.98-0.33 3.96-0.66 6-1v-2c2.31-0.33 4.62-0.66 7-1v-2c2.88-0.961 4.7-1.11 7.69-1.06 0.808 0.00902 1.62 0.018 2.45 0.0273 0.615 0.0116 1.23 0.0232 1.86 0.0352v-2c3.22-1.07 5.62-1.13 9-1.12 1.05-0.00258 2.1-0.00516 3.19-0.00781 2.81 0.133 2.81 0.133 5.81 1.13v2c0.615-0.0116 1.23-0.0232 1.86-0.0352 1.21-0.0135 1.21-0.0135 2.45-0.0273 0.801-0.0116 1.6-0.0232 2.43-0.0352 2.26 0.0977 2.26 0.0977 5.26 1.1v2c2.31 0.33 4.62 0.66 7 1v2c1.98 0.33 3.96 0.66 6 1v3h3v2h4v3c1.65 0.33 3.3 0.66 5 1 0.186 1.21 0.186 1.21 0.375 2.44 0.206 0.846 0.413 1.69 0.625 2.56 0.66 0.33 1.32 0.66 2 1v3h3v3h3v6h3c0.33 1.98 0.66 3.96 1 6 0.99 0.33 1.98 0.66 3 1v2h76v-9h-2v-42h2v-124h-2v-3h-4v-3h-5c-0.33-0.99-0.66-1.98-1-3-1.65-0.33-3.3-0.66-5-1v-2c-2.31-0.33-4.62-0.66-7-1v-3h-4v-2c-0.804-0.124-1.61-0.248-2.44-0.375-0.846-0.206-1.69-0.412-2.56-0.625-0.33-0.66-0.66-1.32-1-2-0.825-0.165-1.65-0.33-2.5-0.5-0.825-0.165-1.65-0.33-2.5-0.5-0.33-0.66-0.66-1.32-1-2-2.53-0.656-2.53-0.656-5-1v-3h-4v-2c-1.98-0.33-3.96-0.66-6-1v-3h-6v-2h-6v-4c-1.32-0.33-2.64-0.66-4-1v-2h-5c-0.33-0.99-0.66-1.98-1-3-1.65-0.33-3.3-0.66-5-1v-2c-2.31-0.33-4.62-0.66-7-1v-3c-0.763 0.0619-1.53 0.124-2.31 0.188-2.69-0.188-2.69-0.188-4.5-1.56-1.19-1.62-1.19-1.62-1.19-3.62-2.31-0.33-4.62-0.66-7-1v-3h-4v-2c-1.65-0.33-3.3-0.66-5-1v-3h-6v-3h-4v-3h-14v3h-4v3h-3v3h-3v3c-0.99 0.33-1.98 0.66-3 1-0.33 0.66-0.66 1.32-1 2h-5v3c-0.99 0.33-1.98 0.66-3 1-0.33 0.66-0.66 1.32-1 2-2.56 0.625-2.56 0.625-5 1-0.33 0.99-0.66 1.98-1 3h-3v3h-3v3h-3v2c-1.98 0.33-3.96 0.66-6 1v4h-3v2h-6v3h-3v3c-0.99 0.33-1.98 0.66-3 1-0.33 0.66-0.66 1.32-1 2-2.56 0.625-2.56 0.625-5 1v2c-0.99 0.33-1.98 0.66-3 1-0.33 0.66-0.66 1.32-1 2h-3v3c-0.804 0.124-1.61 0.248-2.44 0.375-0.846 0.206-1.69 0.412-2.56 0.625-0.33 0.66-0.66 1.32-1 2h-2v3c-2.31 0.33-4.62 0.66-7 1v3h-3c-0.33 0.99-0.66 1.98-1 3h-3v2c-1.65 0.33-3.3 0.66-5 1v4h-4v2c-1.65 0.33-3.3 0.66-5 1v2h-4v3h-3v3h-5v3h-4v3c-1.98 0.33-3.96 0.66-6 1l-1 3h-2v2c-0.99 0.33-1.98 0.66-3 1-0.742 0.773-0.742 0.773-1.5 1.56-1.5 1.44-1.5 1.44-4.5 1.44l-1 3h-3v3h-3v3h-3v4h-6v2h-2v3h-7v3h-3v3h-4v3c-1.21 0.186-1.21 0.186-2.44 0.375-1.27 0.309-1.27 0.309-2.56 0.625l-1 2c-2.56 0.625-2.56 0.625-5 1v2c-0.99 0.33-1.98 0.66-3 1l-1 6h-2v3h2v3h-2v3h2v15h-2v95h2v4h4v2c1.98 0.33 3.96 0.66 6 1v2c1.98 0.33 3.96 0.66 6 1v4h3v2h5l1 3h4v4h2v5h3v4h3l1 8h2v7h3l1 12h2v12h-2l-1 16h-3v7h-3v6h-2l-1 5h-3v3h-2v4h-4v3h-3v3h-3l-1 3h-3v2l-5 1-1 3h-6v3h-12v4h-28v-4h-12v-3h-6v-3h-6v-3h-3v-3h-3v-3h-3l-1-3-2-1v-3h-3l-1-6h-2l-1-5c-0.99-0.33-1.98-0.66-3-1v-6h-3v-9c-0.99-0.33-1.98-0.66-3-1-0.0247-4.22-0.0429-8.44-0.0549-12.7-0.00503-1.43-0.0118-2.87-0.0205-4.3-0.0121-2.06-0.0178-4.13-0.0222-6.19-0.00524-1.24-0.0105-2.48-0.0159-3.76 0.114-3.09 0.114-3.09 1.11-6.09h2l1-6h2v-6c0.99-0.33 1.98-0.66 3-1l0.375-2.44 0.625-2.56 2-1 1-3h3v-3h3v-3h3v-3h3v-2h6v-4h3v-3h6l-0.0625-3.31c0.0625-3.69 0.0625-3.69 1.06-6.69h2v-12h-2v-11h2v-4h-2v-19h2v-61h-21c-8.79-0.563-8.79-0.563-13-1v-2h-2v2h-65v-2h-170v3h-3v4h-3v2h-3v6h-3v3h-2v3h-4v3h-3v3h-3v3c-0.99 0.33-1.98 0.66-3 1-0.598 0.825-1.2 1.65-1.81 2.5-2.66 3.04-4.24 3.23-8.19 3.5v2c-1.98 0.33-3.96 0.66-6 1v3h-11v4h-26v-4h-12v-3c-2.97-0.33-5.94-0.66-9-1v-2h-3v-3c-1.98-0.33-3.96-0.66-6-1v-3h-3v-3h-3v-3h-3l-1-5c-0.99-0.33-1.98-0.66-3-1v-3h-2l-1-6h-3v-2h-3v-7h-3v-40h3v-6h3l1-6h2l1-4h2l0.188-2.25c1.06-3.58 2.88-4.55 5.81-6.75l1-3h3v-3h3v-2h6v-4h3v-3c2.97-0.33 5.94-0.66 9-1v-2c2.97-0.33 5.94-0.66 9-1v-2h37v3h9v3h4v3h6v4h3v2h3v3h3v4h4v5h2v4h3v5h3v4h3v3c143-0.495 143-0.495 289-1v-2c1.98-0.33 3.96-0.66 6-1v-2h4v-3h3v-3c2.31-0.33 4.62-0.66 7-1v-2h2v-3c1.98-0.33 3.96-0.66 6-1v-3h3l1-3h3v-3h5v-2h4v-4h5v-3h4v-3h3v-3h6v-3h3v-3c0.99-0.33 1.98-0.66 3-1l1-2c2.56-0.625 2.56-0.625 5-1v-2c0.99-0.33 1.98-0.66 3-1 0.598-0.825 1.2-1.65 1.81-2.5 2.66-3.04 4.24-3.23 8.19-3.5v-3h3v-3h6v-2h4v-4h2v-3h6v-3h3v-3h4v-3h5v-3h4v-3c1.98-0.33 3.96-0.66 6-1v-2c1.31-1.62 1.31-1.62 3-3h3v-3c1.98-0.33 3.96-0.66 6-1v-3h3v-3h4v-2h5v-4h4v-3h3v-3h6v-3h3v-3h3v-3c2.31-0.33 4.62-0.66 7-1v-2h2v-7h-6v-3h-6v-3h-6v-3h-6v-2h-4v-4h-6v-3h-6v-3c-1.98-0.33-3.96-0.66-6-1v-2c-0.969-0.124-1.94-0.248-2.94-0.375-1.01-0.206-2.02-0.412-3.06-0.625-0.33-0.66-0.66-1.32-1-2-0.825-0.165-1.65-0.33-2.5-0.5-0.825-0.165-1.65-0.33-2.5-0.5-0.33-0.66-0.66-1.32-1-2-2.53-0.656-2.53-0.656-5-1v-3h-3c-0.33-0.66-0.66-1.32-1-2-0.99-0.33-1.98-0.66-3-1v-2c-1.98-0.33-3.96-0.66-6-1v-3h-3v-8h-2v-140h-124l-1 4h-2v2c0.99 0.33 1.98 0.66 3 1l-1 15h-2v163h-3l-1 6-6.15 0.586c-0.61 0.137-1.22 0.273-1.85 0.414l-1 2h-92v3h-3v4h-3v5h-2v4h-4v3h-3v3h-3v4h-3v2h-3v3c-0.99 0.33-1.98 0.66-3 1-0.33 0.66-0.66 1.32-1 2h-3v3h-6v3c-2.97 0.33-5.94 0.66-9 1v2h-37v-2l-1.93-0.148c-1.24-0.112-1.24-0.112-2.5-0.227l-2.5-0.211-2.07-0.414-1-2c-2.53-0.656-2.53-0.656-5-1v-3h-6v-3h-3v-3h-3v-2h-3v-4h-3l-1-6h-3v-4h-3v-5c-0.99-0.33-1.98-0.66-3-1v-6h-2v-12h-4v-21h4v-13h2v-6h3v-6h3c0.155-1.39 0.155-1.39 0.312-2.81 0.693-3.21 1.08-4.31 3.69-6.19h2v-3c0.99-0.33 1.98-0.66 3-1 0.66-0.846 1.32-1.69 2-2.56 0.66-0.804 1.32-1.61 2-2.44h3v-3c1.98-0.33 3.96-0.66 6-1v-2c1.98-0.33 3.96-0.66 6-1v-2c2.97-0.33 5.94-0.66 9-1v-2c3.63-1.21 6.95-1.12 10.7-1.1 1.13 0.00212 1.13 0.00212 2.27 0.00429 2.39 0.00559 4.79 0.0181 7.18 0.0309 1.62 0.00502 3.25 0.00958 4.87 0.0137 3.98 0.011 7.96 0.0283 11.9 0.0488l1 3c1.99-0.0326 3.97-0.0651 5.96-0.0977 2.04 0.0977 2.04 0.0977 5.04 1.1v2l2.75 0.188c4.03 1.01 4.87 2.53 7.25 5.81 0.99 0.33 1.98 0.66 3 1v3h3v3h3v3h2l1 6h4v7h2v5h3v3h3v3h58l1-108h2c-0.00786-1.67-0.00786-1.67-0.0159-3.36-0.0181-4.11-0.0296-8.22-0.0391-12.3-0.00504-1.78-0.0119-3.56-0.0205-5.34-0.0121-2.56-0.0178-5.11-0.0222-7.67-0.00516-0.799-0.0103-1.6-0.0156-2.42-5.75e-4 -5.64-5.75e-4 -5.64 1.11-7.87h-3v-4l-215 1-1 3h-3v6h-3v3h-3v7h-2v2h-4v3h-3v3h-3v3h-3v3c-0.99 0.33-1.98 0.66-3 1l-1 2c-1.67 0.333-3.33 0.667-5 1l-1 2c-1.67 0.333-3.33 0.667-5 1l-1 2c-2.5 0.414-2.5 0.414-5.56 0.625l-3.07 0.227c-0.782 0.049-1.56 0.098-2.37 0.148v2h-23v-2l-15-1v-3h-6l-1-2c-2.53-0.656-2.53-0.656-5-1v-3h-3c-1.37-1.64-2.69-3.31-4-5l-2.75-2.12-2.25-1.88v-3h-3v-2h-3l-1-7c-0.99-0.33-1.98-0.66-3-1v-3h-2l-1-5h-3v-4h-3v-40h3v-6h3v-5c0.99-0.33 1.98-0.66 3-1l1-6h2v-2h3v-4h3l1-6 5-1v-2c0.99-0.33 1.98-0.66 3-1l1-2h3v-3c1.21-0.186 1.21-0.186 2.44-0.375l2.56-0.625 1-2c3.06-0.625 3.06-0.625 6-1v-2l10-1v-2c11.1-1.1 21.9-1.48 33 0v2l10 1v2c1.98 0.33 3.96 0.66 6 1v3c0.743-0.103 1.48-0.206 2.25-0.312 2.75 0.312 2.75 0.312 4.88 2.75 0.619 0.846 1.24 1.69 1.88 2.56 0.99 0.33 1.98 0.66 3 1v5c0.99 0.33 1.98 0.66 3 1v3h4v4h2v5h3v6h3v3h3v3h216v-110h2v-37h-2v-4l-61 1-1 6h-3v7h-2v2h-4v6h-3v3c-0.99 0.33-1.98 0.66-3 1-0.619 0.825-1.24 1.65-1.88 2.5-2.4 2.82-3.52 3.2-7.12 3.5v2c-0.99 0.33-1.98 0.66-3 1-0.33 0.66-0.66 1.32-1 2-3.06 0.625-3.06 0.625-6 1v2c-2.97 0.33-5.94 0.66-9 1v2c-2.98 1.49-5.7 1.13-9.02 1.13-0.696 9.57e-4 -1.39 0.00191-2.11 0.0029-1.47 6.81e-4 -2.95-0.00117-4.42-0.00534-2.25-0.00533-4.49-6.48e-5 -6.74 0.00635-1.43-6.61e-4 -2.87-0.00194-4.3-0.00391-1.3-0.00113-2.6-0.00226-3.94-0.00342-2.97-0.111-5.6-0.434-8.47-1.13v-2l-8-1v-2l-5-1v-2c-1.98-0.33-3.96-0.66-6-1v-3h-3c-1.37-1.64-2.69-3.31-4-5-0.887-0.639-1.77-1.28-2.69-1.94-2.89-2.58-3.05-4.28-3.31-8.06h-3v-2h-2l-1-7c-0.99-0.33-1.98-0.66-3-1v-6h-2v-14h-4v-19h4v-12h2v-7h3v-6h3l1-6h3v-2h3v-4h3v-3h3v-3h3v-3c1.21-0.186 1.21-0.186 2.44-0.375l2.56-0.625 1-2c3.06-0.625 3.06-0.625 6-1v-2h6v-3c6.81-0.801 13.5-1.16 20.4-1.12 0.91 0.00193 1.82 0.00387 2.76 0.00586 6.67 0.0427 13.2 0.351 19.9 1.12v2c2.97 0.33 5.94 0.66 9 1v3h4v2c0.804 0.124 1.61 0.248 2.44 0.375 0.846 0.206 1.69 0.412 2.56 0.625 0.33 0.66 0.66 1.32 1 2 0.99 0.33 1.98 0.66 3 1v3h3v3h3v6h3v3h4v6h2v6h3v4h3l1 2c0.733-0.00222 1.47-0.00444 2.22-0.00673 7.07-0.0204 14.1-0.0355 21.2-0.0451 3.63-0.00512 7.26-0.012 10.9-0.0236 20.2-0.0632 40.4 0.279 60.7 1.08v3h6v3h3v68h2v73h-2v43h3v3h124v-125h2c0.124-0.969 0.247-1.94 0.375-2.94 0.206-1.01 0.412-2.02 0.625-3.06 0.66-0.33 1.32-0.66 2-1 0.33-0.99 0.66-1.98 1-3h5v-2h4v-4h6v-3h5v-3h4v-3h6v-3h6v-3c1.98-0.33 3.96-0.66 6-1v-2c1.98-0.33 3.96-0.66 6-1v-2c0.99-0.33 1.98-0.66 3-1 0.33-0.66 0.66-1.32 1-2 3.06-0.625 3.06-0.625 6-1v-3h3v-2c1.98-0.33 3.96-0.66 6-1v-3h7v-2h2v-7c-1.98-0.33-3.96-0.66-6-1v-2c-0.928-0.103-1.86-0.206-2.81-0.312-3.21-0.693-4.31-1.08-6.19-3.69v-2c-0.969-0.124-1.94-0.248-2.94-0.375-1.01-0.206-2.02-0.412-3.06-0.625-0.33-0.66-0.66-1.32-1-2-0.99-0.33-1.98-0.66-3-1v-3h-3v-2c-1.98-0.33-3.96-0.66-6-1v-3h-3v-3h-3v-3h-6v-3h-6v-2h-3v-4h-3v-3c-1.32-0.33-2.64-0.66-4-1v-2c-0.804-0.124-1.61-0.248-2.44-0.375-0.846-0.206-1.69-0.412-2.56-0.625-0.33-0.66-0.66-1.32-1-2-0.99-0.33-1.98-0.66-3-1v-2c-0.99-0.33-1.98-0.66-3-1v-2c-1.14-0.155-1.14-0.155-2.31-0.312-2.89-0.738-3.95-1.31-5.69-3.69v-3h-4v-2c-1.98-0.33-3.96-0.66-6-1v-3h-3v-3h-4v-3h-5v-2h-4v-4h-3v-3h-5l-1-3h-3v-3c-1.98-0.33-3.96-0.66-6-1v-3h-3v-3h-4v-2l-5-1v-3h-3l-1-2c-2.53-0.656-2.53-0.656-5-1v-3h-4v-3h-3v-2c-1.98-0.33-3.96-0.66-6-1v-2h-2v-4h-7v-3h-3v-3l-2.94-0.375c-1.52-0.309-1.52-0.309-3.06-0.625l-1-2c-2.53-0.656-2.53-0.656-5-1v-2h-286l-1 3h-3v6h-3v3h-3v6h-2v3h-4v3h-3v3c-0.99 0.33-1.98 0.66-3 1l-1 2h-3v3h-5v3c-2.31 0.33-4.62 0.66-7 1v2c-2.97 0.33-5.94 0.66-9 1v2c-3.22 1.07-5.57 1.13-8.95 1.13-1.18 0.00129-2.35 0.00258-3.57 0.00391-1.23-0.00387-2.46-0.00773-3.73-0.0117l-3.68 0.0117c-5.79-0.00631-11.4-0.0749-17.1-1.14v-2l-8-1v-2c-2.31-0.33-4.62-0.66-7-1v-2c-1.98-0.33-3.96-0.66-6-1v-3h-3v-3h-3v-3h-3v-3h-3l-1-5h-3v-4h-3v-4h-2l-1-5h-3v-4h-3v-42h3v-6h3l1-6h2v-4h3v-3h3l1-6h3v-3l5-1v-2c0.99-0.33 1.98-0.66 3-1l1-2h3v-3h6v-3h6v-3l10-1v-2h33v2l1.93 0.148c1.24 0.112 1.24 0.112 2.5 0.227l2.5 0.211 2.07 0.414 1 2 5 1 1 2 5 1 1 2c0.99 0.33 1.98 0.66 3 1v3h3v3h3v3h4v6h2l1 6h2v3h3v4h3v3c90.4-0.33 181-0.66 274-1v-12h-2v-19h2v-79h-3v-4h-2v-3h-4v-2c-1.98-0.33-3.96-0.66-6-1v-3h-3v-3h-3v-3h-3v-3h-3v-3h-3l-1-6h-2v-3h-3l-1-6c-0.99-0.33-1.98-0.66-3-1v-8c-0.99-0.33-1.98-0.66-3-1v-3h3v-9h3v-3h3v-2h3v-4h3v-3h19v3h4v4h2v2h3v6h3l1 6 5 1v3h3v3h4v3c4.95-0.33 9.9-0.66 15-1v-2h4v-3c1.65-0.33 3.3-0.66 5-1 0.33-1.65 0.66-3.3 1-5h2l1-7h2v-12c-0.99-0.33-1.98-0.66-3-1v-3h-2l-1-5h-3v-3c-1.98-0.33-3.96-0.66-6-1v-2l-2.59-0.148-3.35-0.227c-1.65-0.104-1.65-0.104-3.34-0.211l-2.72-0.414-1-2c-3.03-0.658-3.03-0.658-6-1v-2c-1.21-0.186-1.21-0.186-2.44-0.375l-2.56-0.625-1-2c-0.99-0.33-1.98-0.66-3-1v-3h-3c-0.027-1.94-0.0464-3.87-0.0625-5.81l-0.0352-3.27c0.0977-2.92 0.0977-2.92 1.1-5.92h2c0.0619-0.908 0.124-1.82 0.188-2.75 1-4.02 2.49-4.93 5.81-7.25l1-2 5-1 1-2h24v2l1.93 0.148 2.5 0.227 2.5 0.211 2.07 0.414 1 2c3.03 0.658 3.03 0.658 6 1v2c1.98 0.33 3.96 0.66 6 1v3h3v3h3v3h7v7h2v2h3l1 3 2 1c0.594 2.65 0.742 5.29 1 8h2l0.375 2.94 0.625 3.06 2 1c0.396 2.84 0.508 5.66 0.656 8.53l0.344 2.47 2 1v12h-2l-1 16h-2l-1 9h-3v6h-3v4h-3v5h-2v3h-4v3h-3v3c-0.99 0.33-1.98 0.66-3 1l-1 2c-2.56 0.625-2.56 0.625-5 1v2c-2.31 0.33-4.62 0.66-7 1v2c-0.763 0.103-1.53 0.206-2.31 0.312-2.97 0.76-3.96 1.18-5.69 3.69-0.727 3.11-0.727 3.11-1 6h3v50h-2v63h2v4h3v3h3v3h4v4h5v2h4v3h3v3c2.31 0.33 4.62 0.66 7 1v3h2v3h3v2l4 1v2l5 1v3h4v3h5v3h4v3h3v3h6v4h4v2c1.65 0.33 3.3 0.66 5 1v2h3v3h3v3c0.908 0.0619 1.82 0.124 2.75 0.188 4.03 1.01 4.87 2.53 7.25 5.81 0.99 0.33 1.98 0.66 3 1v2c1.98 0.33 3.96 0.66 6 1v3h3v2c2.31 0.33 4.62 0.66 7 1v3h2v3h6v3h3v4h4v2c1.65 0.33 3.3 0.66 5 1v2c1.32 0.33 2.64 0.66 4 1v2c0.804 0.124 1.61 0.248 2.44 0.375 0.846 0.206 1.69 0.412 2.56 0.625 0.33 0.66 0.66 1.32 1 2 0.99 0.33 1.98 0.66 3 1v3h3v2c1.98 0.33 3.96 0.66 6 1v3h3v3h3c0.33 0.66 0.66 1.32 1 2 0.99 0.33 1.98 0.66 3 1v2c1.65 0.33 3.3 0.66 5 1v3h3v3h4v4h5v2h4v3h3v3h4v3h14c0.33-0.99 0.66-1.98 1-3h3v-2c1.98-0.33 3.96-0.66 6-1v-3h6v-2h6v-4h4v-3h5v-3h4v-3h5v-3c1.98-0.33 3.96-0.66 6-1v-2h4v-3h6v-3c1.98-0.33 3.96-0.66 6-1v-2c1.98-0.33 3.96-0.66 6-1v-3h3v-2c1.98-0.33 3.96-0.66 6-1 0.33-0.99 0.66-1.98 1-3h5v-2h6v-4h6v-3c2.31-0.33 4.62-0.66 7-1v-2h4v-3h5v-3c0.99-0.33 1.98-0.66 3-1 1.79-1.06 1.79-1.06 3-3 0.463-3.28 0.463-3.28 0.399-7.12 0.00997-1.09 0.00997-1.09 0.0201-2.21 0.0187-2.45 0.016-4.9 0.0135-7.35 0.00901-1.75 0.0193-3.51 0.0309-5.26 0.0276-4.77 0.0369-9.54 0.0429-14.3 0.00936-4.98 0.0356-9.96 0.06-14.9 0.0437-9.43 0.0722-18.9 0.0953-28.3 0.027-10.7 0.0709-21.5 0.116-32.2 0.0929-22.1 0.162-44.2 0.222-66.3h-71c-0.33 1.98-0.66 3.96-1 6h-3v3c-0.99 0.495-0.99 0.495-2 1-0.656 2.53-0.656 2.53-1 5h-3v3c-1.65 1.35-3.32 2.69-5 4-0.33 0.99-0.66 1.98-1 3h-3v3h-2v3h-4v3h-4v4h-6v2h-6v3h-45c-0.33-0.66-0.66-1.32-1-2-3.03-0.658-3.03-0.658-6-1v-2h-6v-4h-6v-3h-3v-3h-3c-0.33-0.99-0.66-1.98-1-3-0.66-0.33-1.32-0.66-2-1v-3h-3v-5h-3v-4h-3c-0.33-2.64-0.66-5.28-1-8h-2c-0.33-1.98-0.66-3.96-1-6h-2c-0.915-7.48-1.15-14.8-1.12-22.4-0.00387-1.07-0.00773-2.13-0.0117-3.23 0.00129-1.02 0.00258-2.05 0.00391-3.11 0.00169-1.38 0.00169-1.38 0.00342-2.79 0.12-2.31 0.478-4.29 1.13-6.5h2c0.33-2.97 0.66-5.94 1-9h2c0.124-0.969 0.247-1.94 0.375-2.94 0.206-1.01 0.413-2.02 0.625-3.06 0.66-0.33 1.32-0.66 2-1 0.656-2.53 0.656-2.53 1-5h3v-4h3v-3h3v-3h3v-3h3v-3h4v-3h5v-2h7v-4h9v-3h33v3h10v4h6v2h6v3h4v3h2v3h3v4h3c0.33 1.65 0.66 3.3 1 5h2c0.33 0.99 0.66 1.98 1 3 0.66 0.33 1.32 0.66 2 1v3h3c0.186 1.21 0.186 1.21 0.375 2.44 0.206 0.846 0.413 1.69 0.625 2.56 0.66 0.33 1.32 0.66 2 1v3h3v4h65v-4h3v-139h-3v-2c-1.98-0.33-3.96-0.66-6-1v-3h-6v-3h-6v-3h-3v-3h-3v-2h-3c-0.33-2.31-0.66-4.62-1-7h-2v-3h-3c-0.186-1.45-0.186-1.45-0.375-2.94-0.206-1.01-0.413-2.02-0.625-3.06-0.66-0.33-1.32-0.66-2-1-0.594-2.65-0.742-5.29-1-8h-2c-1.16-3.49-1.13-6.25-1.13-9.93-9.57e-4 -0.674-0.00191-1.35-0.0029-2.04-6.8e-4 -1.42 0.00116-2.85 0.00534-4.27 0.00534-2.17 5.24e-5 -4.35-0.00635-6.52 6.61e-4 -1.39 0.00194-2.77 0.00391-4.16 0.00169-1.89 0.00169-1.89 0.00342-3.81 0.105-2.63 0.342-4.76 1.13-7.25h2c0.33-2.97 0.66-5.94 1-9h2c0.33-1.98 0.66-3.96 1-6h2c0.33-1.98 0.66-3.96 1-6h3v-3c0.66-0.33 1.32-0.66 2-1 0.33-0.99 0.66-1.98 1-3h2c0.33-0.99 0.66-1.98 1-3h2c0.33-0.99 0.66-1.98 1-3h3v-2h3v-3c2.97-0.495 2.97-0.495 6-1v-2c2.97-0.495 2.97-0.495 6-1v-2c4.46-0.495 4.46-0.495 9-1v-2c3.44-1.05 6.61-1.13 10.2-1.13zm-3.19 47.1v2c-1.32 0.33-2.64 0.66-4 1v2h-3v4h-3v5c-0.99 0.33-1.98 0.66-3 1-0.027 1.62-0.0464 3.25-0.0625 4.88-0.0116 0.905-0.0232 1.81-0.0352 2.74-0.0648 2.4-0.0648 2.4 1.1 4.38h2v6h3v3h3v3c1.98 0.33 3.96 0.66 6 1 0.33 0.99 0.66 1.98 1 3 2.44 0.027 4.87 0.0468 7.31 0.0625 1.04 0.0126 1.04 0.0126 2.09 0.0254 3.14 0.0152 5.59-0.086 8.6-1.09v-2c2.97-0.495 2.97-0.495 6-1v-3h3c0.917-2.75 1.11-4.36 1.06-7.19-0.0206-1.26-0.0412-2.52-0.0625-3.81h2v-7h-2c-0.049-0.638-0.098-1.28-0.148-1.93-0.0748-0.826-0.15-1.65-0.227-2.5-0.104-1.24-0.104-1.24-0.211-2.5-0.205-1.02-0.205-1.02-0.414-2.07-0.66-0.33-1.32-0.66-2-1-0.495-1.48-0.495-1.48-1-3h-3v-3h-3v-2c-3.72-1.24-7.19-1.15-11.1-1.12-0.733-0.00387-1.47-0.00773-2.22-0.0117-3.99-0.0742-3.99-0.0742-7.72 1.14zm376 162v3c-2.31 0.33-4.62 0.66-7 1v3h-3c-0.186 1.21-0.186 1.21-0.375 2.44-0.206 0.846-0.412 1.69-0.625 2.56l-2 1c-1.16 3.47-1.07 6.36-1 10h-2v5h2c0.124 0.969 0.247 1.94 0.375 2.94 0.309 1.52 0.309 1.52 0.625 3.06 0.66 0.33 1.32 0.66 2 1 0.33 0.99 0.66 1.98 1 3h3v3h3v3h6v3h12c0.33-0.99 0.66-1.98 1-3h5c0.33-0.99 0.66-1.98 1-3 2.47-0.495 2.47-0.495 5-1 0.33-1.65 0.66-3.3 1-5h3v-9c0.99-0.33 1.98-0.66 3-1v-2h-3v-10h-3c-0.0619-0.908-0.124-1.82-0.188-2.75-1.01-4.05-2.29-5.12-5.81-7.25h-4v-2c-3.56-1.19-6.44-1.1-10.2-1.06-1.27 0.00902-2.54 0.018-3.86 0.0273l-2.96 0.0352zm-530 59v4h-7v2c-0.804 0.124-1.61 0.248-2.44 0.375l-2.56 0.625c-1.35 2.71-1.07 5.01-1 8-0.99 0.33-1.98 0.66-3 1v15h3v6h3v3h3v4h4v2h21v-2h4v-4h3v-3h2c1.16-3.47 1.07-6.36 1-10h2c0.8-3.29 1.1-4.71 0-8h-2v-6c-0.99-0.33-1.98-0.66-3-1l-1-6h-5v-2h-9v-4h-10zm316 4v2h-3v3h-3v6h-2c-1.12 3.36-1.13 5.96-1.12 9.5-0.00258 1.14-0.00516 2.29-0.00781 3.47-0.00403 3.08-0.00403 3.08 1.13 6.03h2c0.33 1.98 0.66 3.96 1 6h3v4h6v2h19v-2h6v-4h3v-3h3v-9h3v-6c-0.99-0.33-1.98-0.66-3-1l-1-9h-2v-3h-3v-3h-4v-2h-25zm-885 137-1 3c-0.804 0.124-1.61 0.248-2.44 0.375l-2.56 0.625-1 2c-0.99 0.33-1.98 0.66-3 1v3h-3v3h-3v21h3l1 6c1.65 0.33 3.3 0.66 5 1v3h3l1 3h6v2h5v-2l3.25 0.0625c2.9-0.0483 5.04-0.194 7.75-1.06v-2h2l1-3c0.66-0.33 1.32-0.66 2-1l1-5c0.66-0.33 1.32-0.66 2-1v-18h-2l-0.375-2.94-0.625-3.06c-0.66-0.33-1.32-0.66-2-1l-1-3h-2v-3h-4v-2c-3.29-1.1-5.74-1.1-9.19-1.06l-3.29 0.0273-2.52 0.0352zm1461 1v2h-2v3c-1.65 0.33-3.3 0.66-5 1v2c-0.99 0.33-1.98 0.66-3 1v2h-2c-0.33 2.31-0.66 4.62-1 7h-2v9h2c0.049 0.638 0.098 1.28 0.148 1.93 0.0748 0.826 0.15 1.65 0.227 2.5 0.0696 0.824 0.139 1.65 0.211 2.5 0.137 0.682 0.273 1.36 0.414 2.07 0.66 0.33 1.32 0.66 2 1 0.33 0.99 0.66 1.98 1 3h3v3h4v3c2.96 0.0269 5.92 0.0468 8.88 0.0625l2.55 0.0254 2.44 0.00977c0.744 0.00524 1.49 0.0105 2.25 0.0159 1.97 0.00434 1.97 0.00434 3.88-1.11v-2h4v-3h3v-3h3v-7h3v-12h-3c0.0206-1.11 0.0412-2.23 0.0625-3.38 0.201-3.46 0.201-3.46-1.06-5.62h-2v-3h-3c-0.495-1.98-0.495-1.98-1-4h-5c-0.33-0.99-0.66-1.98-1-3-1.94-0.027-3.87-0.0464-5.81-0.0625l-3.27-0.0352c-2.98-0.0386-2.98-0.0386-5.92 1.1zm-1307 163v2c-1.32 0.33-2.64 0.66-4 1v2c-1.98 0.33-3.96 0.66-6 1v6h-3v7h-2v8h2v6h3v4h3l1 5c1.98 0.33 3.96 0.66 6 1v2c2.88 1.44 5.42 1.09 8.62 1.06l3.6-0.0273 2.77-0.0352v-3h6v-3h4v-4h2v-6h3v-11h-2c-0.33-3.3-0.66-6.6-1-10h-2v-3h-4v-3c-1.98-0.33-3.96-0.66-6-1v-2c-2.81-0.937-4.59-1.13-7.5-1.12-0.773-0.00258-1.55-0.00516-2.34-0.00781-2.34 0.0514-2.34 0.0514-5.16 1.13zm1154-1c-0.33 0.99-0.66 1.98-1 3h-6v3h-2v3h-4v4h-3v21h3v4h4v3h2v3h6v3h12c0.33-0.99 0.66-1.98 1-3h6v-3h3v-3h3v-6h3v-16h-3v-6h-3v-3h-3v-3c-2.31-0.33-4.62-0.66-7-1v-2c-5.44-0.495-5.44-0.495-11-1zm-1305 195v2h-6l-1 3h-3v3c-1.98 0.33-3.96 0.66-6 1v3h-2c-1.17 2.35-1.12 3.74-1.1 6.35l0.00977 2.58c0.00838 0.889 0.0168 1.78 0.0254 2.7 0.00451 0.897 0.00902 1.79 0.0137 2.72 0.0118 2.22 0.0283 4.44 0.0488 6.66h3l1 6 5 1v3h3l1 3h6v2h5v-2h7v-3c2.97-0.495 2.97-0.495 6-1v-3h3v-6h3v-18h-3v-6h-3v-3h-2v-3l-10-1v-2h-6zm1464 0v2c-0.949-0.0206-1.9-0.0412-2.88-0.0625-3.03-0.163-3.03-0.163-5.12 1.06v2h-4v3h-3c-0.33 0.99-0.66 1.98-1 3l-2 1c-0.658 3.03-0.658 3.03-1 6h-2v9h2c0.33 2.97 0.66 5.94 1 9h3v4h3v3h4v2c3.07 1.53 6.27 1.1 9.62 1.06 0.706-0.00451 1.41-0.00902 2.14-0.0137 1.74-0.0118 3.49-0.0297 5.23-0.0488 0.33-0.99 0.66-1.98 1-3h5c0.33-0.99 0.66-1.98 1-3h3v-3c0.99-0.33 1.98-0.66 3-1v-5c0.99-0.33 1.98-0.66 3-1 0.027-1.62 0.0464-3.25 0.0625-4.88 0.0116-0.905 0.0232-1.81 0.0352-2.74 0.0648-2.4 0.0648-2.4-1.1-4.38h-2v-6h-3v-4h-3v-3h-3c-0.495-1.48-0.495-1.48-1-3h-6v-2h-6zm-1314 193v3h-6v3h-3v7h-3v21h3v6h3v3c1.98 0.33 3.96 0.66 6 1v2c3.31 1 6.3 1.1 9.75 1.06l2.98-0.0273 2.27-0.0352c0.33-0.99 0.66-1.98 1-3 2.97-0.495 2.97-0.495 6-1v-2h4v-4h2c0.33-1.65 0.66-3.3 1-5h2v-13c-0.66-0.33-1.32-0.66-2-1-0.625-3.06-0.625-3.06-1-6h-2v-6h-4v-3h-9v-3h-13zm1154 0v3h-6v3h-2v3h-4v6h-3v19h3v3h4v3h2v3c1.98 0.33 3.96 0.66 6 1 0.33 0.99 0.66 1.98 1 3 4.79 0.0825 9.32 0.142 14-1 0.33-0.66 0.66-1.32 1-2 1.67-0.333 3.33-0.667 5-1 0.495-0.99 0.495-0.99 1-2 0.99-0.33 1.98-0.66 3-1v-6h3v-18h-3v-6h-3v-4h-3v-3h-6c-0.33-0.99-0.66-1.98-1-3h-12zm-1308 182v2c-1.98 0.33-3.96 0.66-6 1v3h-3v4h-3v2h-3c-0.029 3.12-0.0468 6.25-0.0625 9.38-0.00838 0.889-0.0168 1.78-0.0254 2.7l-0.00977 2.58c-0.00524 0.786-0.0105 1.57-0.0159 2.38-0.0122 2.05-0.0122 2.05 1.11 3.97h2v6l4 1v2c1.98 0.33 3.96 0.66 6 1v3h18v-3h6v-3h3l1-6h2v-19h-2l-1-5h-3v-4h-2v-3l-10-1v-2h-10zm1465 0v2c-4.45 0.495-4.45 0.495-9 1v3h-3v4h-3c-0.33 2.64-0.66 5.28-1 8h-2v9h2c0.049 0.638 0.098 1.28 0.148 1.93 0.0748 0.826 0.15 1.65 0.227 2.5 0.0696 0.824 0.139 1.65 0.211 2.5 0.137 0.682 0.273 1.36 0.414 2.07 0.66 0.33 1.32 0.66 2 1 0.33 0.99 0.66 1.98 1 3h3v3h6v3h16v-3h6v-3h3v-3h3v-7h2c0.961-2.88 1.11-4.7 1.06-7.69l-0.0273-2.45c-0.0116-0.615-0.0232-1.23-0.0352-1.86h-3v-6h-3v-6h-3v-3c-3.3-0.33-6.6-0.66-10-1v-2h-9zm-898 141v3h-4v3h-3v3c-0.99 0.33-1.98 0.66-3 1v3h-2c-1.59 3.19-1.1 6.63-1.06 10.1 0.00451 0.754 0.00902 1.51 0.0137 2.29 0.0118 1.86 0.0297 3.73 0.0488 5.59h3v6c0.99 0.33 1.98 0.66 3 1 0.495 0.516 0.99 1.03 1.5 1.56 1.51 1.78 1.51 1.78 4.5 1.44 0.33 0.99 0.66 1.98 1 3h3v2c3.5 1.17 6.33 1.13 10 1l2-1v-2h6v-3c1.98-0.495 1.98-0.495 4-1v-2c0.99-0.33 1.98-0.66 3-1v-3h3v-21c-0.99-0.33-1.98-0.66-3-1l-1-3h-2l-1-6h-3v-2c-2.77-0.922-4.38-1.12-7.23-1.1-1.2 0.00483-1.2 0.00483-2.43 0.00977-1.25 0.0126-1.25 0.0126-2.53 0.0254-0.845 0.00451-1.69 0.00902-2.56 0.0137-2.08 0.0118-4.17 0.0297-6.25 0.0488zm323 0v3h-4v3c-0.99 0.33-1.98 0.66-3 1v2c-0.99 0.33-1.98 0.66-3 1v3h-2c-1.59 3.19-1.1 6.63-1.06 10.1 0.00451 0.754 0.00902 1.51 0.0137 2.29 0.0118 1.86 0.0297 3.73 0.0488 5.59h3c0.33 1.98 0.66 3.96 1 6h3v3c1.65 0.33 3.3 0.66 5 1 0.33 0.99 0.66 1.98 1 3h6v2c4.53 0.934 4.53 0.934 9 0v-2c2.97-0.495 2.97-0.495 6-1v-2c1.98-0.495 1.98-0.495 4-1v-2c2.48-0.495 2.48-0.495 5-1 0.33-1.98 0.66-3.96 1-6h2c1.26-2.52 1.1-4.31 1.06-7.12-0.00902-0.91-0.018-1.82-0.0273-2.76l-0.0352-2.12c-0.99-0.33-1.98-0.66-3-1v-6h-3c-0.124-0.804-0.247-1.61-0.375-2.44-0.206-0.846-0.413-1.69-0.625-2.56-0.66-0.33-1.32-0.66-2-1l-1-3h-5c-0.33-0.99-0.66-1.98-1-3h-18zm-527 59v2l-9 1v3h-3v4h-3v8c-0.99 0.33-1.98 0.66-3 1v9h3v9h3v3h3v3h6v3h16v-3h6v-3h3c0.33-0.99 0.66-1.98 1-3 0.66-0.33 1.32-0.66 2-1 0.468-2.59 0.468-2.59 0.625-5.56l0.227-3.07c0.049-0.782 0.098-1.56 0.148-2.37h2v-7h-2l-1-6h-3v-6h-3v-3c-2.97-0.33-5.94-0.66-9-1v-2h-10zm733 3v3h-3v4h-3c-0.33 1.65-0.66 3.3-1 5h-2c-0.33 2.31-0.66 4.62-1 7h-2v5h2c0.33 2.31 0.66 4.62 1 7h2c0.33 0.99 0.66 1.98 1 3h2v3h4v3h4v3h17v-3h6v-3l4-1v-3h2c1.17-2.35 1.12-3.74 1.1-6.35-0.00322-0.851-0.00645-1.7-0.00977-2.58-0.00838-0.889-0.0168-1.78-0.0254-2.7-0.00451-0.897-0.00902-1.79-0.0137-2.72-0.0118-2.22-0.0283-4.44-0.0488-6.66h-3v-5h-3v-4h-3v-3c-4.22-0.801-8.21-1.14-12.5-1.12-1.08-0.00258-2.17-0.00516-3.28-0.00781-3.15 0.13-6.12 0.545-9.22 1.13zm-369 148v2c-1.32 0.33-2.64 0.66-4 1v3h-2c-0.33 1.98-0.66 3.96-1 6h-3c-0.0269 2.63-0.0468 5.25-0.0625 7.88-0.00838 0.746-0.0168 1.49-0.0254 2.26-0.119 4.06-0.119 4.06 1.09 7.86h2c0.33 1.32 0.66 2.64 1 4h2v3h3c0.33 0.99 0.66 1.98 1 3h3v3c2.44 0.027 4.87 0.0468 7.31 0.0625 1.04 0.0126 1.04 0.0126 2.09 0.0254 3.14 0.0152 5.59-0.086 8.6-1.09v-2c1.98-0.495 1.98-0.495 4-1v-2h3v-3c0.99-0.33 1.98-0.66 3-1v-6h2c1.08-6.06 1.08-6.06 0-12h-2v-6h-3c-0.495-2.97-0.495-2.97-1-6-2.48-0.495-2.48-0.495-5-1-0.33-0.99-0.66-1.98-1-3-2.94-0.027-5.87-0.0468-8.81-0.0625-0.833-0.00838-1.67-0.0168-2.53-0.0254-0.802-0.00322-1.6-0.00645-2.43-0.00977-0.738-0.00524-1.48-0.0105-2.24-0.0159-2.2 0.0383-2.2 0.0383-4.99 1.11z" fill="#fff"/>
<path transform="translate(744,696)" d="m0 0h4v2c4.29 0.33 8.58 0.66 13 1v3h2v2h3v4h3v6h3v7h3c0.495 3.96 0.495 3.96 1 8h2c0.124 0.969 0.247 1.94 0.375 2.94 0.309 1.52 0.309 1.52 0.625 3.06 0.66 0.33 1.32 0.66 2 1 0.414 2.07 0.414 2.07 0.625 4.56 0.112 1.24 0.112 1.24 0.227 2.5 0.049 0.638 0.098 1.28 0.148 1.93h2c0.495 4.46 0.495 4.46 1 9h2c0.33 2.97 0.66 5.94 1 9 0.99 0.33 1.98 0.66 3 1v8c0.99 0.33 1.98 0.66 3 1v6h2c1.48 2.96 1.06 5.74 1 9h4v9h2v7h3v8h3v9h3v7h3v9h3c0.33 2.97 0.66 5.94 1 9h2c0.33 2.97 0.66 5.94 1 9h2c0.33 2.31 0.66 4.62 1 7h2c0.33 2.64 0.66 5.28 1 8 0.99 0.33 1.98 0.66 3 1v10h2c0.33 3.63 0.66 7.26 1 11-0.99 0.33-1.98 0.66-3 1-0.155 1.14-0.155 1.14-0.312 2.31-0.753 2.95-1.24 3.94-3.69 5.69-2.69 0.688-2.69 0.688-5 1v2c-2.31 0.33-4.62 0.66-7 1v2h-9v-2c-1.65-0.33-3.3-0.66-5-1v-3h-4v-3h-3v-3h-3v-6h-3v-8h-3c-0.33-3.3-0.66-6.6-1-10h-2v-3c-2.31-0.33-4.62-0.66-7-1v-2h-12v2h-21v-2h-6v2h-13v-2h-6v2c-1.98 0.33-3.96 0.66-6 1l-1 6h-2c-0.33 2.31-0.66 4.62-1 7h-2c-0.33 1.65-0.66 3.3-1 5h-2l-1 6h-2c-0.33 2.31-0.66 4.62-1 7h-2c-0.33 1.65-0.66 3.3-1 5-1.98 0.33-3.96 0.66-6 1v2h-8v-2c-3.3-0.33-6.6-0.66-10-1v-3h-3v-3h-3c-1.38-1.63-2.71-3.3-4-5-0.66-0.33-1.32-0.66-2-1v-11h2c0.33-3.3 0.66-6.6 1-10h3v-10h2c0.33-2.97 0.66-5.94 1-9h3v-9h3v-6h3v-9h4v-9h2v-7h3v-8c1.49-0.495 1.49-0.495 3-1 0.33-2.97 0.66-5.94 1-9h2c0.33-2.31 0.66-4.62 1-7h2c0.33-2.97 0.66-5.94 1-9h2c0.33-1.98 0.66-3.96 1-6h2c0.33-2.97 0.66-5.94 1-9h2c0.33-2.97 0.66-5.94 1-9h3v-9h3v-7h3v-9h3v-8h4v-7h2c0.33-1.98 0.66-3.96 1-6h2v-3h3v-3c0.99-0.33 1.98-0.66 3-1 0.33-0.66 0.66-1.32 1-2 2.5-0.414 2.5-0.414 5.56-0.625 1.52-0.112 1.52-0.112 3.07-0.227 0.782-0.049 1.56-0.098 2.37-0.148v-2zm0 86v2c-0.99 0.33-1.98 0.66-3 1v3h-3v9h-2c-0.33 2.97-0.66 5.94-1 9h-3v9h-3c-0.0425 2-0.0408 4 0 6 1.11 1.34 1.11 1.34 3.96 1.11 1.94-0.00786 1.94-0.00786 3.92-0.0159 0.687-0.00141 1.37-0.00283 2.08-0.00429 2.2-0.00561 4.4-0.0182 6.6-0.0309 1.49-0.00501 2.98-0.00958 4.47-0.0137 3.66-0.011 7.31-0.0283 11-0.0488v-13h-4v-8h-3v-10h-3v-6h-3v-3h-4z" fill="#fff"/>
<path transform="translate(877,699)" d="m0 0h19v2c2.97 0.33 5.94 0.66 9 1v3h2c1.16 3.48 1.11 6.19 1.1 9.86-0.00141 0.662-0.00283 1.32-0.00429 2-0.00559 2.11-0.0181 4.22-0.0309 6.33-0.00502 1.43-0.00958 2.86-0.0137 4.29-0.011 3.51-0.0283 7.01-0.0488 10.5h2v10h-2v2h2v121h-2c0.00524 0.651 0.0105 1.3 0.0159 1.97 0.0208 2.95 0.0338 5.89 0.0466 8.84 0.00838 1.02 0.0168 2.05 0.0254 3.1 0.00322 0.983 0.00645 1.97 0.00977 2.98 0.00524 0.906 0.0105 1.81 0.0159 2.75-0.114 2.36-0.114 2.36-1.11 5.36h-2c-0.33 1.65-0.66 3.3-1 5-0.804 0.124-1.61 0.247-2.44 0.375-0.846 0.206-1.69 0.413-2.56 0.625-0.33 0.66-0.66 1.32-1 2-7.32 2.44-16.5 1.43-24 0v-3h-3v-3h-3c-0.33-2.97-0.66-5.94-1-9h-2v-178h3v-6h3v-3h6v-3z" fill="#fff"/>
</svg>
