<?xml version="1.0" encoding="UTF-8"?>
<svg fill="white" stroke-width="2px" version="1.1" viewBox="0 0 1600 1600" width="1280" height="1280" xmlns="http://www.w3.org/2000/svg">
<path transform="translate(751)" d="m0 0h92v3h18c0.33 0.99 0.66 1.98 1 3 1.04-0.0116 2.07-0.0232 3.14-0.0352 1.37-0.00938 2.74-0.0185 4.11-0.0273 0.682-0.00838 1.36-0.0168 2.07-0.0254 3.38-0.0164 6.46 0.0316 9.68 1.09v2c1.2-0.0206 2.39-0.0412 3.62-0.0625 3.56-0.00633 6.88 0.364 10.4 1.06v2c3.3 0.33 6.6 0.66 10 1v2c3.96 0.33 7.92 0.66 12 1v2c2.97 0.33 5.94 0.66 9 1v2c3.3 0.33 6.6 0.66 10 1v2c2.97 0.33 5.94 0.66 9 1v2c2.97 0.33 5.94 0.66 9 1v3h9v3h6v3h7v4h6v2h6v3h6v3c2.31 0.33 4.62 0.66 7 1v2h2v3c0.969 0.124 1.94 0.248 2.94 0.375 1.01 0.206 2.02 0.412 3.06 0.625 0.33 0.66 0.66 1.32 1 2 2.53 0.656 2.53 0.656 5 1v3h3c0.33 0.66 0.66 1.32 1 2 0.99 0.33 1.98 0.66 3 1v2c1.98 0.33 3.96 0.66 6 1v3h5v3h4v3h4v4h5v2h3v3h3v3c1.32 0.33 2.64 0.66 4 1v2c0.742 0.0619 1.49 0.124 2.25 0.188 3.58 1.06 4.55 2.88 6.75 5.81 0.99 0.33 1.98 0.66 3 1v3h3v3h3v3h3v3h4v3h2v3h3v4h3v2h3v3h3c0.33 0.99 0.66 1.98 1 3 0.66 0.33 1.32 0.66 2 1 0.625 2.56 0.625 2.56 1 5h2c0.33 0.99 0.66 1.98 1 3 0.825 0.598 1.65 1.2 2.5 1.81 3.04 2.66 3.23 4.24 3.5 8.19h3v3h3v5c0.99 0.33 1.98 0.66 3 1v4h4v5h2v4h3v5h3v7h3c0.186 1.21 0.186 1.21 0.375 2.44 0.206 0.846 0.412 1.69 0.625 2.56 0.66 0.33 1.32 0.66 2 1 0.333 1.67 0.667 3.33 1 5 0.66 0.33 1.32 0.66 2 1 0.407 2.32 0.744 4.66 1 7h2c0.33 1.65 0.66 3.3 1 5h2c0.33 1.98 0.66 3.96 1 6h2c0.33 2.31 0.66 4.62 1 7h2c0.33 2.64 0.66 5.28 1 8 0.99 0.33 1.98 0.66 3 1v6h3v9h4v10h2c0.049 0.782 0.098 1.56 0.148 2.37 0.0748 1.01 0.15 2.02 0.227 3.07 0.0696 1.01 0.139 2.02 0.211 3.06 0.137 0.826 0.273 1.65 0.414 2.5 0.66 0.33 1.32 0.66 2 1v12h3c0.33 5.94 0.66 11.9 1 18h2c0.33 7.26 0.66 14.5 1 22h2v84h-2c-0.33 7.59-0.66 15.2-1 23l-2 1c-0.33 5.94-0.66 11.9-1 18h-2c-0.33 7.26-0.66 14.5-1 22h-3v18h-2v13h-4c0.0174 1.26 0.0174 1.26 0.0352 2.55 0.0135 1.64 0.0135 1.64 0.0273 3.32 0.0116 1.09 0.0232 2.18 0.0352 3.3-0.0977 2.82-0.0977 2.82-1.1 4.82h-2v13h-3c0.0116 0.615 0.0232 1.23 0.0352 1.86 0.0135 1.21 0.0135 1.21 0.0273 2.45 0.0116 0.801 0.0232 1.6 0.0352 2.43-0.0977 2.26-0.0977 2.26-1.1 5.26h-2c-0.33 3.3-0.66 6.6-1 10h-2c-0.33 3.96-0.66 7.92-1 12h-2c-0.33 2.97-0.66 5.94-1 9h-2c-0.049 0.855-0.098 1.71-0.148 2.59-0.0748 1.1-0.15 2.21-0.227 3.35-0.104 1.65-0.104 1.65-0.211 3.34-0.137 0.898-0.273 1.8-0.414 2.72-0.66 0.33-1.32 0.66-2 1-0.658 3.03-0.658 3.03-1 6h-2c-0.33 2.97-0.66 5.94-1 9h-3v9h-3v9h-3v7h-2v9h-4v6h-3c0.0309 1.67 0.0309 1.67 0.0625 3.38-0.0625 3.62-0.0625 3.62-1.06 5.62h-2c-0.33 1.98-0.66 3.96-1 6h-2c-0.33 1.98-0.66 3.96-1 6h-2c-0.33 2.31-0.66 4.62-1 7h-2c-0.33 1.98-0.66 3.96-1 6h-2c-0.33 1.98-0.66 3.96-1 6h-2c-0.33 2.31-0.66 4.62-1 7h-3v5h-3v4h-3v5h-3v6h-2v6h-4v4h-3v3h-3c-0.33 2.31-0.66 4.62-1 7h-2v2h-3c-0.33 1.98-0.66 3.96-1 6h-3v3h-3v4h-2c-0.33 1.65-0.66 3.3-1 5h-3v3h-3v4h-3v3h-3v3h-2v7h-4v2h-3v3h-3v3h-3c-0.33 1.32-0.66 2.64-1 4h-2c-0.33 1.98-0.66 3.96-1 6h-2v8h2v7h-2v3h2v21h-2v3h2v4h-2v25h2v6h3c0.33 0.66 0.66 1.32 1 2 1.86 0.39 1.86 0.39 4 0.5 2.19 0.156 2.19 0.156 4 0.5 0.33 0.66 0.66 1.32 1 2 2.78 0.393 2.78 0.393 6 0.5 3.31 0.156 3.31 0.156 6 0.5 0.33 0.66 0.66 1.32 1 2 3.28 0.47 3.28 0.47 7.06 0.625 1.29 0.0748 2.58 0.15 3.91 0.227 0.999 0.049 2 0.098 3.03 0.148v3h13v3h12c0.33 0.66 0.66 1.32 1 2 2.59 0.468 2.59 0.468 5.56 0.625 1.01 0.0748 2.02 0.15 3.07 0.227 0.782 0.049 1.56 0.098 2.37 0.148v3h13v4h12v2h12c0.33 0.99 0.66 1.98 1 3 0.615-0.0116 1.23-0.0232 1.86-0.0352 1.21-0.0135 1.21-0.0135 2.45-0.0273 1.2-0.0174 1.2-0.0174 2.43-0.0352 2.26 0.0977 2.26 0.0977 5.26 1.1v2c0.699-0.0116 1.4-0.0232 2.12-0.0352 1.37-0.0135 1.37-0.0135 2.76-0.0273 0.905-0.0116 1.81-0.0232 2.74-0.0352 2.38 0.0977 2.38 0.0977 4.38 1.1v2c3.96 0.33 7.92 0.66 12 1v2c1.07 0.049 2.14 0.098 3.25 0.148 1.4 0.075 2.79 0.151 4.19 0.227 0.707 0.0309 1.41 0.0619 2.14 0.0938 1.81 0.104 3.62 0.31 5.42 0.531 0.33 0.66 0.66 1.32 1 2 2.36 0.468 2.36 0.468 5.06 0.625 0.919 0.0748 1.84 0.15 2.79 0.227 0.71 0.049 1.42 0.098 2.15 0.148v2c0.782 0.049 1.56 0.098 2.37 0.148 1.01 0.0748 2.02 0.15 3.07 0.227 1.51 0.104 1.51 0.104 3.06 0.211 0.826 0.137 1.65 0.273 2.5 0.414 0.33 0.66 0.66 1.32 1 2 2.59 0.468 2.59 0.468 5.56 0.625 1.01 0.0748 2.02 0.15 3.07 0.227 0.782 0.049 1.56 0.098 2.37 0.148v3h10v3h9v3h9v3h6v4h9v2c1.98 0.33 3.96 0.66 6 1v2c2.64 0.33 5.28 0.66 8 1v2h2v3c1.98 0.33 3.96 0.66 6 1v2c1.98 0.33 3.96 0.66 6 1v3h4v2c1.65 0.33 3.3 0.66 5 1v3h4v3h3v3h6v3h4v3h2v4h3v2c1.32 0.33 2.64 0.66 4 1v2c0.743 0.0619 1.48 0.124 2.25 0.188 3.62 1.07 4.52 2.82 6.75 5.81 0.825 0.66 1.65 1.32 2.5 2 2.5 2 2.5 2 4.62 4.69 1.74 2.56 1.74 2.56 4.88 3.31v3h3v3h3v3h4v3h2v7h3v2h3c0.33 0.99 0.66 1.98 1 3l2 1v5h3c0.33 0.99 0.66 1.98 1 3l2 1c0.333 1.67 0.667 3.33 1 5l2 1c0.625 2.56 0.625 2.56 1 5h2c0.33 0.99 0.66 1.98 1 3 0.66 0.33 1.32 0.66 2 1 0.625 3.06 0.625 3.06 1 6h2c0.33 1.98 0.66 3.96 1 6h3v6h3v7h4v8h2v7h3v10h3v8h3c0.049 0.638 0.098 1.28 0.148 1.93 0.112 1.24 0.112 1.24 0.227 2.5 0.0696 0.824 0.139 1.65 0.211 2.5 0.137 0.682 0.273 1.36 0.414 2.07 0.66 0.33 1.32 0.66 2 1 0.396 2.84 0.508 5.66 0.656 8.53 0.113 0.815 0.227 1.63 0.344 2.47 0.66 0.33 1.32 0.66 2 1 0.312 2.55 0.513 5 0.625 7.56 0.0387 0.711 0.0773 1.42 0.117 2.15 0.0945 1.76 0.177 3.52 0.258 5.28h2c1.05 22.3 1.15 44.5 1.13 66.8-0.0023 5.14 0.00125 10.3 0.00398 15.4 0.00441 10 0.0035 20 5.87e-4 30.1-0.00227 8.14-0.00256 16.3-0.00148 24.4 2.3e-4 1.75 2.3e-4 1.75 4.64e-4 3.53 3.2e-4 2.37 6.44e-4 4.73 9.73e-4 7.1 0.00284 22.1-4.11e-4 44.2-0.0058 66.3-0.00448 18.9-0.00368 37.9 9.19e-4 56.8 0.00535 22.1 0.00746 44.1 0.00439 66.2-3.19e-4 2.35-6.33e-4 4.7-9.43e-4 7.05-1.54e-4 1.16-3.09e-4 2.31-4.68e-4 3.5-8.62e-4 8.14 5.91e-4 16.3 0.00295 24.4 0.00281 9.91 0.00204 19.8-0.00328 29.7-0.00262 5.05-0.00366 10.1-3.51e-4 15.2 0.00299 4.63 0.00133 9.25-0.00398 13.9-0.00111 1.67-5.57e-4 3.34 0.00188 5.01 0.0273 20.3 0.0273 20.3-1.13 25.7-0.66 0.33-1.32 0.66-2 1-0.33 0.99-0.66 1.98-1 3h-3v3h-3v3h-3v3h-21c-0.33-1.98-0.66-3.96-1-6h-2c-0.33-0.99-0.66-1.98-1-3-1.63-1.37-3.3-2.71-5-4-2.16-1.73-2.92-2.52-3.38-5.29-0.00461-0.904-0.00922-1.81-0.014-2.74-0.0125-1.04-0.0251-2.08-0.038-3.15 0.00144-1.14 0.00287-2.28 0.00435-3.45-0.0153-1.8-0.0153-1.8-0.0309-3.64-0.025-3.29-0.0369-6.58-0.0429-9.87-0.00937-3.44-0.0356-6.88-0.06-10.3-0.0437-6.51-0.0722-13-0.0953-19.5-0.027-7.41-0.0709-14.8-0.116-22.2-0.0929-15.3-0.165-30.5-0.222-45.8h-3v-3h-3v-3h-3v-3h-5v-3h-4v-3h-3v-3h-4v-2h-5v-4h-3v-3h-4v-3c-1.65-0.33-3.3-0.66-5-1v-2c-1.32-0.33-2.64-0.66-4-1v-2h-3v-3c-1.65-0.33-3.3-0.66-5-1v-3h-4v-3h-4v-2c-1.65-0.33-3.3-0.66-5-1v-3h-4v-3h-5v-3h-3v-2h-4v-4h-3v-3h-3v-3c-1.65-0.33-3.3-0.66-5-1v-5h-4c-0.33-44.9-0.66-89.8-1-136h-2c-0.33-24.1-0.66-48.2-1-73-0.66-0.33-1.32-0.66-2-1-0.33-9.9-0.66-19.8-1-30-0.66-0.33-1.32-0.66-2-1-0.33-6.93-0.66-13.9-1-21h-2c-0.33-3.96-0.66-7.92-1-12h-2c-0.186-1.45-0.186-1.45-0.375-2.94-0.309-1.52-0.309-1.52-0.625-3.06-0.66-0.33-1.32-0.66-2-1-0.414-2.07-0.414-2.07-0.625-4.56-0.112-1.24-0.112-1.24-0.227-2.5-0.049-0.638-0.098-1.28-0.148-1.93h-2c-0.33-1.98-0.66-3.96-1-6h-2c-0.33-1.98-0.66-3.96-1-6h-3v-2h-3v-4h-3v-3h-2v-3h-4v-3h-3v-3c-1.98-0.33-3.96-0.66-6-1v-3h-6v-3h-6c-0.33-0.66-0.66-1.32-1-2-3.03-0.658-3.03-0.658-6-1v-3h-6v-2c-2.97-0.33-5.94-0.66-9-1v-3h-6v-3h-6v-2h-3c-0.33-2.31-0.66-4.62-1-7h-2c-0.33-30.4-0.66-60.7-1-92-2.97-0.33-5.94-0.66-9-1v-2c-4.95-0.33-9.9-0.66-15-1v-3h-12c-0.33-0.66-0.66-1.32-1-2-2.82-0.469-2.82-0.469-6.06-0.625l-3.35-0.227c-0.855-0.049-1.71-0.098-2.59-0.148v-3h-12v-3h-12v-3h-13v-2h-12v-4h-12v-3h-12c-0.33-0.99-0.66-1.98-1-3-0.626 0.0116-1.25 0.0232-1.9 0.0352-1.23 0.0135-1.23 0.0135-2.48 0.0273-0.812 0.0116-1.62 0.0232-2.46 0.0352-2.16-0.0977-2.16-0.0977-4.16-1.1v-2c-4.29-0.33-8.58-0.66-13-1v-2c-0.855-0.049-1.71-0.098-2.59-0.148l-3.35-0.227c-1.65-0.104-1.65-0.104-3.34-0.211-0.898-0.137-1.8-0.273-2.72-0.414-0.33-0.66-0.66-1.32-1-2-3.28-0.47-3.28-0.47-7.06-0.625-1.29-0.0748-2.58-0.15-3.91-0.227-0.999-0.049-2-0.098-3.03-0.148v3c-2.31 0.33-4.62 0.66-7 1-0.33 0.99-0.66 1.98-1 3h-2v2c-1.98 0.33-3.96 0.66-6 1-0.33 0.99-0.66 1.98-1 3h-3v3h-6v4h-6v2h-6v3h-9v6h3v3h4v4h2v2c1.98 0.33 3.96 0.66 6 1v3h3v3h3v3h4v3h5v3h4v4h3v2h3v3h3v3h6v3h3v3h3v3h3v3c1.98 0.33 3.96 0.66 6 1v3h3v3h3v3h3v3h4v3h3v4h3v2h4v3h2v3h3v4h3v3h3v3h3c0.33 1.65 0.66 3.3 1 5h2c0.33 0.99 0.66 1.98 1 3 0.66 0.33 1.32 0.66 2 1v3h3c0.33 1.98 0.66 3.96 1 6h3v4h2c0.33 1.65 0.66 3.3 1 5h3v6h3v4h4v6h2v6h3c0.33 2.64 0.66 5.28 1 8h2v7h3c0.049 0.638 0.098 1.28 0.148 1.93 0.0748 0.826 0.15 1.65 0.227 2.5 0.0696 0.824 0.139 1.65 0.211 2.5 0.137 0.682 0.273 1.36 0.414 2.07 0.66 0.33 1.32 0.66 2 1 0.414 2.72 0.414 2.72 0.625 6.06 0.0748 1.1 0.15 2.21 0.227 3.35 0.049 0.855 0.098 1.71 0.148 2.59h2v46h-2c-0.33 7.26-0.66 14.5-1 22h-2c-0.33 6.93-0.66 13.9-1 21h-2c-0.33 6.93-0.66 13.9-1 21h-3v15h-3v13h-2v19h-4v14c-0.99 0.33-1.98 0.66-3 1 0.0116 0.615 0.0232 1.23 0.0352 1.86 0.0135 1.21 0.0135 1.21 0.0273 2.45 0.0116 0.801 0.0232 1.6 0.0352 2.43-0.0977 2.26-0.0977 2.26-1.1 5.26h-2c0.0116 0.603 0.0232 1.21 0.0352 1.83 0.0135 1.2 0.0135 1.2 0.0273 2.42 0.0174 1.18 0.0174 1.18 0.0352 2.39-0.0938 2.27-0.465 4.19-1.1 6.36h-2c0.0116 0.58 0.0232 1.16 0.0352 1.76 0.0525 4.54-0.118 8.77-1.04 13.2h-2c-0.33 4.95-0.66 9.9-1 15h-2c-0.049 0.855-0.098 1.71-0.148 2.59-0.0748 1.1-0.15 2.21-0.227 3.35-0.104 1.65-0.104 1.65-0.211 3.34-0.137 0.898-0.273 1.8-0.414 2.72-0.66 0.33-1.32 0.66-2 1-0.469 2.82-0.469 2.82-0.625 6.06-0.0748 1.1-0.15 2.21-0.227 3.35-0.049 0.855-0.098 1.71-0.148 2.59h-3v12h-3v12h-3v10h-2c-0.33 3.96-0.66 7.92-1 12h-3v12h-2v13h-4c0.0116 0.603 0.0232 1.21 0.0352 1.83 0.0135 1.2 0.0135 1.2 0.0273 2.42 0.0174 1.18 0.0174 1.18 0.0352 2.39-0.0938 2.27-0.465 4.19-1.1 6.36h-2v8c-0.99 0.33-1.98 0.66-3 1 0.0116 0.759 0.0232 1.52 0.0352 2.3 0.0135 1.49 0.0135 1.49 0.0273 3.01 0.0116 0.986 0.0232 1.97 0.0352 2.99-0.0977 2.7-0.0977 2.7-1.1 5.7h-2c-0.33 4.29-0.66 8.58-1 13h-2c-0.33 2.97-0.66 5.94-1 9h-2c-0.33 3.96-0.66 7.92-1 12h-2c-0.33 4.29-0.66 8.58-1 13h-2c-0.33 3.96-0.66 7.92-1 12h-3v10h-2c-0.33 3.63-0.66 7.26-1 11h-3v12c-0.66 0.33-1.32 0.66-2 1-0.467 2.13-0.467 2.13-0.625 4.56-0.0748 0.826-0.15 1.65-0.227 2.5-0.049 0.638-0.098 1.28-0.148 1.93h-2v10h-4c0.0309 1.42 0.0309 1.42 0.0625 2.88-0.0625 3.12-0.0625 3.12-1.06 5.12h-2v6c-0.99 0.33-1.98 0.66-3 1v5c-0.99 0.33-1.98 0.66-3 1v3h-25v-6h-2v-4h-4v-3h-3v-3h-3v-18h2c0.33-3.96 0.66-7.92 1-12h3v-9h4v-12h2l-0.0352-2.12c-0.0135-1.37-0.0135-1.37-0.0273-2.76l-0.0352-2.74c0.0977-2.38 0.0977-2.38 1.1-4.38h2l-0.0352-2.08-0.0273-2.73-0.0352-2.71c0.0977-2.48 0.0977-2.48 1.1-5.48h2c0.33-2.31 0.66-4.62 1-7h2c-0.0309-1.79-0.0309-1.79-0.0625-3.62-0.00633-3.56 0.364-6.88 1.06-10.4h2c0.33-4.29 0.66-8.58 1-13h2c0.049-0.855 0.098-1.71 0.148-2.59 0.0748-1.1 0.15-2.21 0.227-3.35 0.104-1.65 0.104-1.65 0.211-3.34 0.137-0.898 0.273-1.8 0.414-2.72 0.66-0.33 1.32-0.66 2-1 0.39-1.86 0.39-1.86 0.5-4 0.156-2.19 0.156-2.19 0.5-4 0.66-0.33 1.32-0.66 2-1 0.468-2.59 0.468-2.59 0.625-5.56 0.0748-1.01 0.15-2.02 0.227-3.07 0.049-0.782 0.098-1.56 0.148-2.37h2c0.33-4.62 0.66-9.24 1-14h2c0.33-3.96 0.66-7.92 1-12h2c0.33-3.63 0.66-7.26 1-11h3v-13h4v-12h2v-13h3l-0.0352-1.86-0.0273-2.45-0.0352-2.43c0.0977-2.26 0.0977-2.26 1.1-5.26h2l-0.0352-1.76c-0.0525-4.54 0.118-8.77 1.04-13.2h2c0.33-4.29 0.66-8.58 1-13h2c0.049-1.07 0.098-2.14 0.148-3.25 0.075-1.4 0.151-2.79 0.227-4.19 0.0309-0.707 0.0619-1.41 0.0938-2.14 0.104-1.81 0.31-3.62 0.531-5.42 0.66-0.33 1.32-0.66 2-1 0.465-1.9 0.465-1.9 0.625-4.06 0.124-1.3 0.247-2.6 0.375-3.94h2c0.33-5.28 0.66-10.6 1-16h2c0.33-4.29 0.66-8.58 1-13h2c0.33-4.95 0.66-9.9 1-15h2c0.33-4.95 0.66-9.9 1-15h3v-15c0.66-0.33 1.32-0.66 2-1 0.33-5.94 0.66-11.9 1-18h4v-18h2v-15c0.99-0.33 1.98-0.66 3-1-0.0116-1.23-0.0232-2.46-0.0352-3.73-0.00938-1.63-0.0185-3.27-0.0273-4.9-0.00838-0.808-0.0168-1.62-0.0254-2.45-0.018-4.43 0.192-8.56 1.09-12.9h2v-43h-2c-0.961-2.88-1.11-4.7-1.06-7.69 0.0135-1.21 0.0135-1.21 0.0273-2.45 0.0116-0.615 0.0232-1.23 0.0352-1.86-0.99-0.33-1.98-0.66-3-1v-6h-2v-6h-4v-2h-3v-7h-3v-4h-3v-5h-3v-4h-3c-0.33-1.65-0.66-3.3-1-5h-2c-0.33-0.99-0.66-1.98-1-3-0.66-0.33-1.32-0.66-2-1v-3h-3v-3h-3c-0.33-1.65-0.66-3.3-1-5h-3v-4h-3v-3h-2v-3h-4v-3h-3v-3h-3v-3c-1.32-0.33-2.64-0.66-4-1v-2c-1.65-0.33-3.3-0.66-5-1v-3h-3v-3h-3v-3h-4v-3h-3v-3h-5v-2h-3v-4h-4v-3c-1.98-0.33-3.96-0.66-6-1v-2h-3v-3c-1.32-0.33-2.64-0.66-4-1v-2c-0.804-0.124-1.61-0.248-2.44-0.375-0.846-0.206-1.69-0.412-2.56-0.625-0.33-0.66-0.66-1.32-1-2-2.53-0.656-2.53-0.656-5-1v-3h-4v-3h-3v-2c-1.65-0.33-3.3-0.66-5-1v-3h-4v-3h-6v-3h-4v-2h-9v-4h-21c-0.33 4.95-0.66 9.9-1 15h-2c5.7e-4 1.91 5.7e-4 1.91 0.00115 3.86 0.0167 56.1 0.0321 112 0.0412 168 1.38e-4 0.85 2.76e-4 1.7 4.18e-4 2.57 0.00299 18.5 0.00576 36.9 0.0083 55.4 0.00125 9.05 0.00254 18.1 0.00387 27.2 1.96e-4 1.35 1.96e-4 1.35 3.96e-4 2.73 0.00426 29.2 0.0118 58.4 0.021 87.7 0.00943 30 0.0156 60 0.0176 90.1 2.88e-4 4.24 6.14e-4 8.47 9.62e-4 12.7 6.74e-5 0.834 1.35e-4 1.67 2.04e-4 2.53 0.00118 13.4 0.00583 26.9 0.0118 40.3 0.00588 13.5 0.00814 27 0.00667 40.5-7.63e-4 8.03 0.00129 16.1 0.0073 24.1 0.00417 5.98 0.00317 12 1.01e-4 18-4.25e-4 2.43 8.65e-4 4.86 0.00398 7.29 0.00398 3.29 0.00187 6.57-0.00184 9.86 0.00263 0.957 0.00525 1.91 0.00796 2.9-0.00225 0.873-0.00449 1.75-0.00681 2.65 1.56e-4 0.752 3.12e-4 1.5 4.73e-4 2.28-0.128 2.14-0.538 4.03-1.12 6.08h-2c0.0116 0.615 0.0232 1.23 0.0352 1.86 0.0135 1.21 0.0135 1.21 0.0273 2.45 0.0116 0.801 0.0232 1.6 0.0352 2.43-0.0977 2.26-0.0977 2.26-1.1 5.26h-5v3h-3v3h-4v3h-17v-3h-4v-3h-3v-3h-3v-3h-3c-0.33-1.98-0.66-3.96-1-6h-2c-0.33-201-0.66-403-1-610-10.9 0.33-21.8 0.66-33 1h-15c-0.33 7.92-0.66 15.8-1 24h-2c3.06e-4 0.923 3.06e-4 0.923 6.18e-4 1.86 0.0114 36.4-0.0136 72.8-0.0852 109-0.0114 5.83-0.0222 11.7-0.033 17.5-0.0221 11.9-0.0447 23.8-0.0676 35.6-0.0226 11.7-0.0449 23.4-0.067 35.1-0.00208 1.1-0.00208 1.1-0.0042 2.23-0.00704 3.74-0.0141 7.48-0.0211 11.2-0.0495 26.3-0.0994 52.6-0.15 78.9-0.0488 25.5-0.0973 51-0.146 76.5-0.00149 0.79-0.00299 1.58-0.00453 2.39-0.015 7.94-0.03 15.9-0.045 23.8-0.0305 16.2-0.0611 32.3-0.0917 48.5-0.00141 0.742-0.00281 1.48-0.00426 2.25-0.0934 49.3-0.188 98.7-0.282 148-1.98 0.33-3.96 0.66-6 1v3h-3v2c-1.98 0.33-3.96 0.66-6 1v3h-15v-3h-7v-3h-3v-3h-3v-3c-0.99-0.33-1.98-0.66-3-1v-620c-0.99-0.33-1.98-0.66-3-1v-9h-22v4h-6v2h-6v3h-6v3c-1.98 0.33-3.96 0.66-6 1v2h-3v3c-1.98 0.33-3.96 0.66-6 1v2c-0.99 0.33-1.98 0.66-3 1-0.33 0.66-0.66 1.32-1 2-2.56 0.625-2.56 0.625-5 1v2c-0.99 0.33-1.98 0.66-3 1-0.743 0.773-0.743 0.773-1.5 1.56-1.5 1.44-1.5 1.44-4.5 1.44-0.33 0.99-0.66 1.98-1 3h-3v3h-3v3h-6v4h-3v2h-3v3c-0.99 0.33-1.98 0.66-3 1-0.33 0.66-0.66 1.32-1 2h-3v3c-1.65 0.33-3.3 0.66-5 1-0.33 0.99-0.66 1.98-1 3h-2v2c-0.99 0.33-1.98 0.66-3 1-2.37 2-2.99 2.97-4 6h-3v3h-3v3h-2v3h-4v3h-3v4h-3v2h-3c-0.33 1.98-0.66 3.96-1 6h-3v3c-1.37 1.69-1.37 1.69-3 3h-2c-0.33 1.98-0.66 3.96-1 6h-3v3c-0.66 0.33-1.32 0.66-2 1-0.33 0.99-0.66 1.98-1 3h-3v5c-0.66 0.33-1.32 0.66-2 1-0.33 0.99-0.66 1.98-1 3h-3v6h-2v6h-4v6h-3v6c-0.99 0.33-1.98 0.66-3 1 0.0309 1.86 0.0309 1.86 0.0625 3.75 0.00517 2.91-0.132 5.46-1.06 8.25h-2v30h2c0.832 5.04 1.11 9.81 1.06 14.9-0.00451 0.684-0.00902 1.37-0.0137 2.07-0.0116 1.66-0.0296 3.33-0.0488 4.99h2c1.21 3.62 1.11 6.93 1.06 10.7-0.00451 0.702-0.00902 1.4-0.0137 2.13-0.0118 1.73-0.0297 3.46-0.0488 5.19 0.99 0.33 1.98 0.66 3 1v16h4v17h2v16h3v15h3c0.33 4.95 0.66 9.9 1 15h2v13h3c0.049 1.07 0.098 2.14 0.148 3.25 0.075 1.4 0.151 2.79 0.227 4.19 0.0464 1.06 0.0464 1.06 0.0938 2.14 0.104 1.81 0.31 3.62 0.531 5.42 0.66 0.33 1.32 0.66 2 1 0.396 2.84 0.508 5.66 0.656 8.53 0.113 0.815 0.227 1.63 0.344 2.47 0.66 0.33 1.32 0.66 2 1 0.414 2.72 0.414 2.72 0.625 6.06 0.112 1.66 0.112 1.66 0.227 3.35 0.049 0.855 0.098 1.71 0.148 2.59h2c0.33 4.95 0.66 9.9 1 15h2c0.33 4.29 0.66 8.58 1 13h2c0.33 3.96 0.66 7.92 1 12h2c1 3.31 1.1 6.3 1.06 9.75-0.00902 0.985-0.018 1.97-0.0273 2.98-0.0174 1.12-0.0174 1.12-0.0352 2.27h3v12h4v13h2v10h3c0.33 4.62 0.66 9.24 1 14h2c0.33 4.29 0.66 8.58 1 13h2c0.33 3.96 0.66 7.92 1 12h2c0.049 0.638 0.098 1.28 0.148 1.93 0.0748 0.826 0.15 1.65 0.227 2.5 0.0696 0.824 0.139 1.65 0.211 2.5 0.137 0.682 0.273 1.36 0.414 2.07 0.66 0.33 1.32 0.66 2 1 0.414 2.72 0.414 2.72 0.625 6.06 0.112 1.66 0.112 1.66 0.227 3.35 0.049 0.855 0.098 1.71 0.148 2.59h2c0.33 4.29 0.66 8.58 1 13h2c0.33 3.63 0.66 7.26 1 11h2c0.33 3.96 0.66 7.92 1 12h2c0.33 3.3 0.66 6.6 1 10h2c0.961 2.88 1.11 4.7 1.06 7.69-0.0135 1.21-0.0135 1.21-0.0273 2.45-0.0116 0.615-0.0232 1.23-0.0352 1.86h2c1 3.01 1.1 5.04 1.06 8.19-0.0135 1.35-0.0135 1.35-0.0273 2.73-0.0174 1.03-0.0174 1.03-0.0352 2.08h4v11h2c0.33 4.29 0.66 8.58 1 13h2c0.33 4.95 0.66 9.9 1 15h2v3h-3v6h-3v3c-1.98 0.33-3.96 0.66-6 1v6h-3v3h-24c-0.33-1.98-0.66-3.96-1-6h-2c-0.33-2.31-0.66-4.62-1-7h-2c-1.35-2.71-1.07-5.01-1-8h-2v-10h-4v-8h-3c-0.33-4.29-0.66-8.58-1-13h-2c-0.33-3.96-0.66-7.92-1-12h-2v-10h-3c-0.33-3.96-0.66-7.92-1-12h-2c-0.049-0.638-0.098-1.28-0.148-1.93-0.0748-0.826-0.15-1.65-0.227-2.5-0.0696-0.824-0.139-1.65-0.211-2.5-0.137-0.682-0.273-1.36-0.414-2.07-0.66-0.33-1.32-0.66-2-1-0.414-2.72-0.414-2.72-0.625-6.06-0.112-1.66-0.112-1.66-0.227-3.35-0.049-0.855-0.098-1.71-0.148-2.59h-2c-0.33-3.63-0.66-7.26-1-11h-2c-0.33-4.29-0.66-8.58-1-13h-2c-1.16-3.47-1.07-6.36-1-10h-2c-1.1-3.29-1.1-5.74-1.06-9.19 0.00902-1.09 0.018-2.17 0.0273-3.29l0.0352-2.52h-3v-12h-2v-10h-4v-11h-3v-13h-3c-0.33-3.96-0.66-7.92-1-12h-2c-0.049-0.638-0.098-1.28-0.148-1.93-0.0748-0.826-0.15-1.65-0.227-2.5-0.0696-0.824-0.139-1.65-0.211-2.5-0.137-0.682-0.273-1.36-0.414-2.07-0.66-0.33-1.32-0.66-2-1-0.414-2.72-0.414-2.72-0.625-6.06-0.112-1.66-0.112-1.66-0.227-3.35-0.049-0.855-0.098-1.71-0.148-2.59h-2c-0.33-4.29-0.66-8.58-1-13h-2c-0.33-4.62-0.66-9.24-1-14h-2c-0.33-4.29-0.66-8.58-1-13h-2c-0.33-3.96-0.66-7.92-1-12h-2c-1.04-5.05-1.1-9.87-1-15-0.99-0.33-1.98-0.66-3-1v-12h-2c-1.44-2.88-1.09-5.42-1.06-8.62 0.00902-1.19 0.018-2.38 0.0273-3.6 0.0174-1.37 0.0174-1.37 0.0352-2.77h-2v-15h-4v-16h-3c-0.33-5.94-0.66-11.9-1-18h-2v-16h-3c-0.33-5.94-0.66-11.9-1-18h-2c-0.33-7.26-0.66-14.5-1-22h-2c-0.596-13.5-1.1-27-1.12-40.6-0.00677-1.5-0.00677-1.5-0.0137-3.04 0.0125-6.19 0.401-12.3 1.14-18.4h2c0.33-3.96 0.66-7.92 1-12h3v-8h3v-7c0.66-0.33 1.32-0.66 2-1 0.656-2.53 0.656-2.53 1-5h3v-7h4v-6h2v-6h3v-3h3v-5h3c0.33-2.31 0.66-4.62 1-7h3v-3h3v-3c0.66-0.33 1.32-0.66 2-1 0.33-0.99 0.66-1.98 1-3h2c0.33-1.65 0.66-3.3 1-5h3v-3h3v-3h3v-4h3v-3h4v-3h2v-2h3v-4h3v-3c0.99-0.33 1.98-0.66 3-1 0.33-0.66 0.66-1.32 1-2h3v-3h3v-3h3v-3h3v-3c1.65-0.33 3.3-0.66 5-1 0.33-0.99 0.66-1.98 1-3h3v-3h3v-3h4v-3h2v-3h6v-2h3v-4c0.99-0.33 1.98-0.66 3-1 0.33-0.66 0.66-1.32 1-2h3v-3c1.65-0.33 3.3-0.66 5-1v-2h4v-3h3v-3h3v-3h3v-3c1.98-0.33 3.96-0.66 6-1v-9h-6v-3h-6v-2h-6v-4h-6v-3h-6v-3c-1.32-0.33-2.64-0.66-4-1v-2c-1.98-0.33-3.96-0.66-6-1v-2h-2v-3h-17v2c-3.96 0.33-7.92 0.66-12 1v2c-4.95 0.33-9.9 0.66-15 1v2c-2.88 0.961-4.7 1.11-7.69 1.06-0.808-0.00902-1.62-0.018-2.45-0.0273-0.922-0.0174-0.922-0.0174-1.86-0.0352v2c-3.01 1-5.04 1.1-8.19 1.06-0.901-0.00902-1.8-0.018-2.73-0.0273-1.03-0.0174-1.03-0.0174-2.08-0.0352v3h-11v4h-13v2h-13v3h-12v3h-12v3h-13v3h-12v3l-12 1v2c-2.97 0.33-5.94 0.66-9 1-0.33 0.99-0.66 1.98-1 3h-3c0.244 1.22 0.244 1.22 0.494 2.47 0.576 4.02 0.631 7.94 0.604 12-0.00212 1.19-0.00212 1.19-0.00429 2.4-0.00556 2.51-0.0181 5.01-0.0309 7.52-0.00502 1.71-0.00958 3.41-0.0137 5.12-0.011 4.17-0.0282 8.34-0.0488 12.5h2v41h-2c-0.33 2.97-0.66 5.94-1 9h-3v4h-3v2h-6v3h-6v3h-6v3h-6v3l-2.94 0.375c-1.52 0.309-1.52 0.309-3.06 0.625-0.33 0.66-0.66 1.32-1 2h-6v3h-6v3c-1.98 0.33-3.96 0.66-6 1v2c-1.37 1.62-1.37 1.62-3 3h-2v3c-0.598 0.103-1.2 0.206-1.81 0.312-2.55 0.802-3.55 1.59-5.19 3.69-0.714 2.1-0.714 2.1-1 4h-2v2h-3c-0.33 1.32-0.66 2.64-1 4h-2c-0.33 1.98-0.66 3.96-1 6h-2c-0.33 2.97-0.66 5.94-1 9h-2l-0.375 3.94c-0.211 2.21-0.211 2.21-0.625 4.06-0.66 0.33-1.32 0.66-2 1-0.468 2.36-0.468 2.36-0.625 5.06-0.0748 0.919-0.15 1.84-0.227 2.79-0.049 0.71-0.098 1.42-0.148 2.15h-2c-0.33 4.62-0.66 9.24-1 14h-3v22h-2c-0.33 18.2-0.66 36.3-1 55-0.66 0.33-1.32 0.66-2 1l-1 169h-2v6h-4v3h-3v3h-3v3h-4v4h-5v2h-3v3h-4v3h-3v3c-1.98 0.33-3.96 0.66-6 1v2h-3v3h-2v3c-2.31 0.33-4.62 0.66-7 1-0.33 0.99-0.66 1.98-1 3h-2v2c-0.99 0.33-1.98 0.66-3 1-0.495 0.516-0.99 1.03-1.5 1.56-1.5 1.44-1.5 1.44-4.5 1.44-0.33 0.99-0.66 1.98-1 3h-3v3h-6v4h-3v2h-3v3h-5v3h-4v3c-1.98 0.33-3.96 0.66-6 1v2h-3v3c-0.99 0.33-1.98 0.66-3 1-0.33 0.99-0.66 1.98-1 3h-2v6h2v68h-2c0.00524 1.13 0.0105 2.26 0.0159 3.42 0.0182 4.23 0.0296 8.46 0.0391 12.7 5e-3 1.82 0.0118 3.65 0.0205 5.47 0.0123 2.64 0.0178 5.27 0.0222 7.91 0.00516 0.801 0.0103 1.6 0.0156 2.43 5.56e-4 5.74-0.45 11.4-1.11 17.1h-2l-0.375 2.44-0.625 2.56c-0.66 0.33-1.32 0.66-2 1-0.33 0.99-0.66 1.98-1 3h-3v3h-3v3h-24v-9h-3v-3h-3l-1-7h-2v-440h2l1-24h2c0.495-4.95 0.495-4.95 1-10h2l1-12h2l1-9h2l1-12h3v-6h3v-7h4v-8h2v-6c0.99-0.33 1.98-0.66 3-1v-3h3v-6h3c0.33-1.98 0.66-3.96 1-6h2l0.375-2.94 0.625-3.06c0.66-0.33 1.32-0.66 2-1 0.33-0.99 0.66-1.98 1-3h2l0.375-2.44 0.625-2.56c0.66-0.33 1.32-0.66 2-1 0.33-0.99 0.66-1.98 1-3h3v-6h3v-3h3v-2h3v-7h4v-3h2v-3h3v-3h3v-3h3v-3h3c0.33-1.32 0.66-2.64 1-4h3v-3h3v-3h3v-3h3v-3h3v-2h6v-4h4v-3h2v-3h3v-3h6v-3c0.99-0.33 1.98-0.66 3-1 0.33-0.66 0.66-1.32 1-2h3v-3c1.21-0.186 1.21-0.186 2.44-0.375 0.846-0.206 1.69-0.412 2.56-0.625 0.33-0.66 0.66-1.32 1-2 2.56-0.625 2.56-0.625 5-1 0.33-0.99 0.66-1.98 1-3h3v-2c2.31-0.33 4.62-0.66 7-1v-2l5-1v-3h7v-2h8v-4h7v-3h9v-3h9v-3h9v-3c3.96-0.33 7.92-0.66 12-1v-2l14-1v-2c2.97-0.33 5.94-0.66 9-1v-2c3.96-0.33 7.92-0.66 12-1v-2c5.05-1.04 9.87-1.1 15-1v-2c3.98-1.33 7.85-1.07 12-1v-2c2.88-0.961 4.7-1.11 7.69-1.06 0.808 0.00902 1.62 0.018 2.45 0.0273 0.922 0.0174 0.922 0.0174 1.86 0.0352l1-3h12v-2h12v-4h13v-3h12v-3h12v-3c4.95-0.33 9.9-0.66 15-1v-2c4.29-0.33 8.58-0.66 13-1v-2c3.96-0.33 7.92-0.66 12-1v-2h9c0.33-1.32 0.66-2.64 1-4h2v-80h-2c-2.61-1.88-2.99-2.98-3.69-6.19-0.103-0.928-0.206-1.86-0.312-2.81h-3v-3h-3v-2h-2v-4h-4v-4h-3c-0.33-1.65-0.66-3.3-1-5h-2v-3h-3c-0.33-0.99-0.66-1.98-1-3-0.66-0.33-1.32-0.66-2-1v-3h-3c-0.33-1.65-0.66-3.3-1-5h-2c-0.33-0.99-0.66-1.98-1-3-0.66-0.33-1.32-0.66-2-1v-3h-3c-0.33-1.65-0.66-3.3-1-5h-3v-4c-0.99-0.33-1.98-0.66-3-1v-5h-3v-4h-2v-5h-4v-4h-3v-6h-3v-6h-3v-3h-3c-0.124-0.969-0.248-1.94-0.375-2.94-0.206-1.01-0.413-2.02-0.625-3.06-0.66-0.33-1.32-0.66-2-1-0.333-1.67-0.667-3.33-1-5-0.66-0.33-1.32-0.66-2-1-0.333-1.67-0.667-3.33-1-5-0.66-0.33-1.32-0.66-2-1-0.333-1.67-0.667-3.33-1-5l-2-1c-0.414-2.07-0.414-2.07-0.625-4.56-0.112-1.24-0.112-1.24-0.227-2.5l-0.148-1.93h-3v-6h-3v-6h-3v-7h-2v-8h-4v-7h-3v-9h-3v-5h-3l-1-13h-2l-1-9h-2l-1-9h-2l-1-9h-2l-1-10h-2l-1-12h-2l-1-10h-2c-0.961-2.88-1.11-4.7-1.06-7.69l0.0273-2.45 0.0352-1.86c-0.99-0.33-1.98-0.66-3-1v-12h-2v-15h-4v-18h-3l-1-18h-2c-0.33-6.27-0.66-12.5-1-19h-2c-0.33-7.26-0.66-14.5-1-22h-2c-0.33-13.2-0.66-26.4-1-40h-2v-34h2c0.33-10.9 0.66-21.8 1-33h2c0.33-6.27 0.66-12.5 1-19h3v-15h3v-10h2l1-12h4v-8h2v-10h3v-6c0.99-0.33 1.98-0.66 3-1l1-9h2l1-6h2l1-6h2l0.375-2.94c0.309-1.52 0.309-1.52 0.625-3.06l2-1c0.656-2.53 0.656-2.53 1-5h3v-6h3v-4h2l1-6h3v-6h3v-3h4v-5h2v-7h3v-3h3l0.312-2.81c0.693-3.21 1.08-4.31 3.69-6.19h2c0.33-1.32 0.66-2.64 1-4h2c0.33-0.99 0.66-1.98 1-3h2c0.124-0.804 0.248-1.61 0.375-2.44 0.309-1.27 0.309-1.27 0.625-2.56 0.66-0.33 1.32-0.66 2-1 0.33-0.99 0.66-1.98 1-3h3v-3h3v-2h3v-4h3v-3h4v-4h2c0.33-0.99 0.66-1.98 1-3h2c0.33-0.99 0.66-1.98 1-3h2c0.33-0.99 0.66-1.98 1-3h2c0.33-0.99 0.66-1.98 1-3h2c0.33-0.99 0.66-1.98 1-3h3v-3h3v-2c1.88-2.61 2.98-2.99 6.19-3.69 0.928-0.103 1.86-0.206 2.81-0.312v-3h3v-2h3v-4h6v-3h3v-3h4v-3h5v-3h4v-3c0.804-0.124 1.61-0.248 2.44-0.375 0.846-0.206 1.69-0.412 2.56-0.625 0.33-0.66 0.66-1.32 1-2 2.56-0.625 2.56-0.625 5-1v-2l3-1c0.33-0.66 0.66-1.32 1-2 2.32-0.407 4.66-0.744 7-1v-3h5v-3h4v-2c1.98-0.33 3.96-0.66 6-1v-2h6v-4c2.64-0.33 5.28-0.66 8-1v-2h7v-3c2.97-0.33 5.94-0.66 9-1v-2c1.45-0.186 1.45-0.186 2.94-0.375 1.01-0.206 2.02-0.412 3.06-0.625 0.33-0.66 0.66-1.32 1-2 2.06-0.391 4.09-0.507 6.19-0.656 0.598-0.113 1.2-0.227 1.81-0.344 0.33-0.66 0.66-1.32 1-2 2.07-0.414 2.07-0.414 4.56-0.625 0.826-0.0748 1.65-0.15 2.5-0.227 0.638-0.049 1.28-0.098 1.93-0.148v-2c3.3-0.33 6.6-0.66 10-1v-2c3.63-0.33 7.26-0.66 11-1v-2c3.96-0.33 7.92-0.66 12-1v-2c2.99-0.872 5.64-1.11 8.75-1.06 0.799 0.00902 1.6 0.018 2.42 0.0273 0.603 0.0116 1.21 0.0232 1.83 0.0352v-2c3.75-1.2 7.33-1.1 11.2-1.06 1.89 0.0135 1.89 0.0135 3.83 0.0273 0.964 0.0116 1.93 0.0232 2.92 0.0352 0.33-0.99 0.66-1.98 1-3h15v-3zm43 47v2c-1.47-0.00786-1.47-0.00786-2.97-0.0159-3.64-0.0181-7.28-0.0296-10.9-0.0391-1.57-0.00502-3.15-0.0118-4.72-0.0205-2.26-0.0122-4.53-0.0178-6.79-0.0222-0.701-0.00516-1.4-0.0103-2.12-0.0156-3.31-3.79e-4 -6.32 0.0881-9.48 1.11v2c-1.12-0.0116-2.24-0.0232-3.39-0.0352-1.47-0.00938-2.95-0.0185-4.42-0.0273-0.738-0.00838-1.48-0.0168-2.24-0.0254-3.25-0.0147-5.85 0.0526-8.95 1.09v2c-0.831-0.0116-1.66-0.0232-2.52-0.0352-1.63-0.0135-1.63-0.0135-3.29-0.0273-1.62-0.0174-1.62-0.0174-3.27-0.0352-2.98-0.0386-2.98-0.0386-5.92 1.1v2c-0.831-0.0116-1.66-0.0232-2.52-0.0352-1.63-0.0135-1.63-0.0135-3.29-0.0273-1.62-0.0174-1.62-0.0174-3.27-0.0352-2.98-0.0386-2.98-0.0386-5.92 1.1v2c-0.922-0.0174-0.922-0.0174-1.86-0.0352-1.21-0.0135-1.21-0.0135-2.45-0.0273-0.801-0.0116-1.6-0.0232-2.43-0.0352-2.43 0.00108-2.43 0.00108-5.26 1.1v2c-1.09-0.0206-2.19-0.0413-3.31-0.0625-3.63-0.123-3.63-0.123-6.69 1.06v2c-2.97 0.33-5.94 0.66-9 1v2c-2.97 0.33-5.94 0.66-9 1v2c-2.31 0.33-4.62 0.66-7 1v2c-2.97 0.33-5.94 0.66-9 1v4h-6v2h-5v3h-7v3h-7v3h-5c-0.33 0.99-0.66 1.98-1 3-2.48 0.495-2.48 0.495-5 1v2h-4v3c-1.98 0.33-3.96 0.66-6 1v2c-1.65 0.33-3.3 0.66-5 1v3h-4v3h-4v2c-1.65 0.33-3.3 0.66-5 1v3h-3v4h-4v2h-5v3h-4v3h-3v3h-3v3h-3v3h-2v3h-4v3h-3l-1 3c-1.65 1.36-3.31 2.69-5 4-0.33 0.66-0.66 1.32-1 2-0.99 0.33-1.98 0.66-3 1v3h-3v4h-3v2h-2c-0.33 1.98-0.66 3.96-1 6h-3v3h-3v3h-3v6h-3v4h-2v5h-4v4h-3v7h-3c-0.33 1.65-0.66 3.3-1 5h-2c-0.33 0.99-0.66 1.98-1 3l-1.56 1.44c-1.89 1.7-1.89 1.7-1.44 5.56h-2c-1.35 2.71-1.07 5.01-1 8-0.99 0.33-1.98 0.66-3 1v5c-0.99 0.33-1.98 0.66-3 1v6h-3v6h-3v9c-0.99 0.33-1.98 0.66-3 1v8h3v4h3v3h3c0.33 0.99 0.66 1.98 1 3h3v3h5v3h4v4h6v2h3v3c1.98 0.33 3.96 0.66 6 1v2h3v3c1.98 0.33 3.96 0.66 6 1 0.33 0.99 0.66 1.98 1 3h3v2c2.88 0.961 4.7 1.11 7.69 1.06 0.808-0.00902 1.62-0.018 2.45-0.0273 0.615-0.0116 1.23-0.0232 1.86-0.0352v2c5.88 0.729 11.6 1.14 17.5 1.13 0.812 0.00145 1.62 0.00291 2.46 0.0044 2.71 0.00364 5.42 1.85e-4 8.12-0.00326 1.97 0.00115 3.93 0.00274 5.9 0.00473 5.39 0.00417 10.8 0.00211 16.2-9.86e-4 5.82-0.00226 11.6 0.00123 17.5 0.00398 11.4 0.00445 22.8 0.00349 34.2 5.87e-4 9.27-0.00226 18.5-0.00256 27.8-0.00148 1.32 1.53e-4 2.64 3.06e-4 4 4.64e-4 2.01 2.38e-4 4.02 4.79e-4 6.02 7.27e-4 25.1 0.00306 50.2 2.87e-4 75.3-0.0051 22.3-0.00474 44.5-0.00432 66.8 4.61e-4 25 0.00536 50.1 0.00748 75.1 0.00439 2.67-3.21e-4 5.34-6.33e-4 8.01-9.43e-4 1.31-1.54e-4 2.63-3.09e-4 3.98-4.68e-4 9.25-8.63e-4 18.5 5.93e-4 27.8 0.00295 11.3 0.00281 22.6 0.00204 33.8-0.00328 5.75-0.00262 11.5-0.00366 17.3-3.51e-4 5.27 0.00299 10.5 0.00133 15.8-0.00398 1.9-0.00111 3.8-5.58e-4 5.71 0.00188 9.99 0.0118 19.9-0.14 29.8-1.13v-2l2.3 0.0352c0.994 0.00902 1.99 0.018 3.01 0.0273 0.986 0.0116 1.97 0.0232 2.99 0.0352 2.8 0.0256 2.8 0.0256 5.7-1.1v-2c2.31-0.33 4.62-0.66 7-1v-2c1.98-0.33 3.96-0.66 6-1v-3h3v-3h6v-3h3v-2h6v-4h3v-3h4v-3h5v-3h4v-4h3v-15h-3v-8h-3c0.0326-2.02 0.0651-4.04 0.0977-6.05 0.0288-2.03 0.0288-2.03-1.1-3.95h-2v-6h-3v-6c-0.99-0.33-1.98-0.66-3-1-0.33-1.98-0.66-3.96-1-6h-2c-0.33-1.98-0.66-3.96-1-6h-3v-5h-3v-4h-3v-6h-2v-4h-4v-5h-3v-4h-3v-5h-3v-4h-3v-3h-3v-3h-3c-0.33-1.98-0.66-3.96-1-6h-3v-3h-3v-3c-1.65-1.35-3.32-2.69-5-4-0.33-0.99-0.66-1.98-1-3h-3v-3h-2v-3h-4v-3h-3v-3h-3v-3h-3c-0.33-0.99-0.66-1.98-1-3h-3v-2c-2.47-0.495-2.47-0.495-5-1v-2h-4v-4h-3v-3c-0.804-0.124-1.61-0.248-2.44-0.375-0.846-0.206-1.69-0.412-2.56-0.625-0.33-0.66-0.66-1.32-1-2h-3v-3c-1.98-0.33-3.96-0.66-6-1v-3h-3v-2c-1.98-0.33-3.96-0.66-6-1v-3h-4v-2c-1.98-0.33-3.96-0.66-6-1v-3h-6v-3h-6v-3h-5v-3h-7v-2h-9v-4c-1.45-0.186-1.45-0.186-2.94-0.375-1.01-0.206-2.02-0.412-3.06-0.625-0.33-0.66-0.66-1.32-1-2-2.13-0.467-2.13-0.467-4.56-0.625l-2.5-0.227c-0.638-0.049-1.28-0.098-1.93-0.148v-2c-3.96-0.495-3.96-0.495-8-1v-2c-3.3-0.33-6.6-0.66-10-1v-2c-3.47-1.16-6.36-1.07-10-1v-2c-2.75-0.917-4.36-1.11-7.19-1.06-1.26 0.0206-2.52 0.0412-3.81 0.0625v-2c-2.99-0.872-5.64-1.11-8.75-1.06-1.2 0.0135-1.2 0.0135-2.42 0.0273-0.603 0.0116-1.21 0.0232-1.83 0.0352v-2c-3.29-1.1-5.74-1.1-9.19-1.06-1.09 0.00902-2.17 0.018-3.29 0.0273-0.831 0.0116-1.66 0.0232-2.52 0.0352v-2c-2.77-0.922-4.38-1.12-7.23-1.1-1.2 0.00483-1.2 0.00483-2.43 0.00977-1.25 0.0126-1.25 0.0126-2.53 0.0254-1.27 0.00677-1.27 0.00677-2.56 0.0137-2.08 0.0118-4.17 0.0297-6.25 0.0488v-2c-3.54-1.1-6.82-1.11-10.5-1.1-1.88 0.00483-1.88 0.00483-3.79 0.00977-1.3 0.00838-2.6 0.0168-3.95 0.0254-1.32 0.00451-2.63 0.00902-3.99 0.0137-3.25 0.0118-6.51 0.0282-9.76 0.0488v-2c-2.81-0.937-4.59-1.13-7.5-1.12-0.773-0.00258-1.55-0.00516-2.34-0.00781-2.34 0.0514-2.34 0.0514-5.16 1.13zm-320 267-1 19h-2v45h2l1 35h2c0.33 7.92 0.66 15.8 1 24h4v18h2v16h3v18h3l-0.0352 2.77c-0.00902 1.19-0.018 2.38-0.0273 3.6l-0.0352 3.59c-0.117 2.96-0.117 2.96 1.1 5.04h2l-0.0352 2.08-0.0273 2.73-0.0352 2.71c-0.0124 2.61-0.0124 2.61 1.1 5.48h2v6h3l1 4h2v2h13v-2h3v-19h-3v-16h-3v-11h-3c0.0116-1.19 0.0232-2.38 0.0352-3.61 0.00938-1.57 0.0185-3.13 0.0273-4.7l0.0254-2.38c0.00322-0.757 0.00645-1.51 0.00977-2.29 0.00524-0.696 0.0105-1.39 0.0159-2.11-0.0446-2.13-0.0446-2.13-1.11-4.9h-2c0.00524-0.585 0.0105-1.17 0.0159-1.77 0.0208-2.66 0.0338-5.32 0.0466-7.98 0.0126-1.38 0.0126-1.38 0.0254-2.79 0.00322-0.889 0.00645-1.78 0.00977-2.7 0.00524-0.817 0.0105-1.63 0.0159-2.48-0.111-2.23-0.493-4.15-1.11-6.29h-2v-49h3v-3h3v-3c2.97-0.495 2.97-0.495 6-1v-2c2.31-0.33 4.62-0.66 7-1v-2h11v2c1.98 0.33 3.96 0.66 6 1 0.33 0.99 0.66 1.98 1 3h2v3h3l-0.0625 3.75c-0.00517 2.91 0.132 5.46 1.06 8.25h2c0.33 7.26 0.66 14.5 1 22h2l1 24h2l1 16h2c0.495 8.91 0.495 8.91 1 18h4v15h2v13h3v12h3v9h3v7h3v5c0.99 0.33 1.98 0.66 3 1 0.33 0.99 0.66 1.98 1 3h3v2c1.98 0.33 3.96 0.66 6 1v3h6v3h7v3h5v3h6v4h6v2c0.969 0.124 1.94 0.248 2.94 0.375 1.01 0.206 2.02 0.412 3.06 0.625 0.33 0.66 0.66 1.32 1 2 0.825 0.165 1.65 0.33 2.5 0.5 0.825 0.165 1.65 0.33 2.5 0.5 0.33 0.66 0.66 1.32 1 2 2.36 0.468 2.36 0.468 5.06 0.625 0.919 0.0748 1.84 0.15 2.79 0.227 1.07 0.0735 1.07 0.0735 2.15 0.148v2c1.65 0.33 3.3 0.66 5 1v2c2.97 0.33 5.94 0.66 9 1v2c2.97 0.33 5.94 0.66 9 1 0.33 0.99 0.66 1.98 1 3h9v3h9v3h13v2c2.52 1.26 4.31 1.1 7.12 1.06 1.37-0.0135 1.37-0.0135 2.76-0.0273 0.699-0.0116 1.4-0.0232 2.12-0.0352v2c3.19 1.59 6.63 1.1 10.1 1.06 1.13-0.00677 1.13-0.00677 2.29-0.0137 1.86-0.0118 3.73-0.0297 5.59-0.0488 0.33 0.99 0.66 1.98 1 3h27v4h92v-4c1.12 0.00786 1.12 0.00786 2.26 0.0159 3.37 0.0207 6.74 0.0338 10.1 0.0466 1.76 0.0126 1.76 0.0126 3.56 0.0254 1.12 0.00322 2.24 0.00645 3.4 0.00977 1.04 0.00524 2.07 0.0105 3.14 0.0159 2.52 0.0579 2.52 0.0579 4.52-1.11v-2h16c0.33-0.99 0.66-1.98 1-3 1.26 0.0174 1.26 0.0174 2.55 0.0352l3.32 0.0273c1.09 0.0116 2.18 0.0232 3.3 0.0352 2.77 0.0998 2.77 0.0998 4.82-1.1v-2h10v-3c0.922 0.0174 0.922 0.0174 1.86 0.0352 0.808 0.00902 1.62 0.018 2.45 0.0273 0.801 0.0116 1.6 0.0232 2.43 0.0352 2.43-0.00108 2.43-0.00108 5.26-1.1v-2c1.11 0.0206 2.23 0.0412 3.38 0.0625 3.46 0.201 3.46 0.201 5.62-1.06v-2c2.97-0.33 5.94-0.66 9-1v-2c2.31-0.33 4.62-0.66 7-1v-2c3.3-0.33 6.6-0.66 10-1v-2c1.98-0.33 3.96-0.66 6-1v-2c2.64-0.33 5.28-0.66 8-1v-3h7v-2h6v-4h6v-3h7v-3h5v-3h6v-3h6v-3l4-1v-2c0.99-0.33 1.98-0.66 3-1v-6h2c1.2-2.41 1.1-3.95 1.06-6.62-0.0135-1.23-0.0135-1.23-0.0273-2.48-0.0116-0.626-0.0232-1.25-0.0352-1.9h3v-10h3v-13h3v-15h4v-18h2c0.33-4.95 0.66-9.9 1-15h2c0.33-7.59 0.66-15.2 1-23h2c0.33-8.58 0.66-17.2 1-26h2c0.33-4.29 0.66-8.58 1-13h2c0.33-1.98 0.66-3.96 1-6 1.65-0.33 3.3-0.66 5-1v-2h25v2c1.98 0.33 3.96 0.66 6 1 0.33 0.99 0.66 1.98 1 3h2v5c0.99 0.33 1.98 0.66 3 1v27h-2c-1.07 3.48-1.11 6.67-1.1 10.3 0.00322 1.21 0.00645 2.41 0.00977 3.65 0.00838 1.25 0.0168 2.51 0.0254 3.8 0.00677 1.9 0.00677 1.9 0.0137 3.85 0.0118 3.13 0.0282 6.27 0.0488 9.4h-2c-0.922 2.77-1.12 4.38-1.1 7.23 0.00322 0.802 0.00645 1.6 0.00977 2.43 0.00838 0.833 0.0168 1.67 0.0254 2.53 0.00677 1.27 0.00677 1.27 0.0137 2.56 0.0118 2.08 0.0297 4.17 0.0488 6.25-0.99 0.33-1.98 0.66-3 1v15h-3v13h-2c-1.2 2.4-1.11 3.89-1.1 6.57 0.00322 0.896 0.00645 1.79 0.00977 2.71 0.00838 0.937 0.0168 1.87 0.0254 2.84 0.00677 1.42 0.00677 1.42 0.0137 2.86 0.0118 2.34 0.0283 4.67 0.0488 7.01h-2v5h2v3h16v-3h3v-9h2c1.16-3.47 1.07-6.36 1-10h2c1.38-2.76 1.1-5.05 1.06-8.12-0.0135-1.64-0.0135-1.64-0.0273-3.32-0.0116-0.843-0.0232-1.69-0.0352-2.55 0.99-0.33 1.98-0.66 3-1v-11h3v-19h3v-16h4v-24h2c0.33-9.24 0.66-18.5 1-28h2v-73h-2v-4h-7v4h-6v2h-4v3h-5v3h-4v3h-6v3h-5c-0.33 0.99-0.66 1.98-1 3-2.47 0.495-2.47 0.495-5 1v2c-1.09-0.0206-2.19-0.0412-3.31-0.0625-3.63-0.123-3.63-0.123-6.69 1.06v2c-5.28 0.33-10.6 0.66-16 1v2h-511v-2c-5.94-0.33-11.9-0.66-18-1v-2c-2.97-0.33-5.94-0.66-9-1v-3h-6v-3h-4v-2c-1.65-0.33-3.3-0.66-5-1-0.33-0.99-0.66-1.98-1-3h-5v-3h-4v-3h-3v-2h-6v-4h-2v-3h-7zm40 258c-0.33 1.32-0.66 2.64-1 4h-2v2h3v7h2c0.33 2.97 0.66 5.94 1 9h4v7h2v8h3v7h3l-0.0625 2.88c-0.163 3.03-0.163 3.03 1.06 5.12h2c0.33 1.98 0.66 3.96 1 6h2c0.33 2.31 0.66 4.62 1 7h2c0.33 1.98 0.66 3.96 1 6h2c0.33 1.98 0.66 3.96 1 6h2c0.124 0.969 0.247 1.94 0.375 2.94 0.206 1.01 0.413 2.02 0.625 3.06l2 1c0.33 0.99 0.66 1.98 1 3h2c0.33 1.98 0.66 3.96 1 6h3v6h3v3h4v7h2v2h3v6h3c0.33 1.32 0.66 2.64 1 4h2c0.33 1.65 0.66 3.3 1 5h2c0.33 1.32 0.66 2.64 1 4h2v3h3c0.124 0.804 0.247 1.61 0.375 2.44 0.206 0.846 0.413 1.69 0.625 2.56 0.66 0.33 1.32 0.66 2 1 0.33 0.99 0.66 1.98 1 3h3v3h3v4h3v2h3v4h4v5h2v3h3v3h3v3h3c0.33 1.32 0.66 2.64 1 4h2c0.33 0.99 0.66 1.98 1 3h3v3h3v3h3v3h3v4h6v2h3v3h4v3c1.65 0.33 3.3 0.66 5 1 0.33 0.99 0.66 1.98 1 3h2v2c1.98 0.33 3.96 0.66 6 1v3h3c0.33 0.99 0.66 1.98 1 3h5v3h4v3h6v3h7v3h2c0.33 0.99 0.66 1.98 1 3h8v4h4v2h8v3h7v3c3.3 0.33 6.6 0.66 10 1v2c2.64 0.33 5.28 0.66 8 1v2c3.98 1.33 7.85 1.07 12 1v2c3.01 1 5.04 1.1 8.19 1.06 0.901-0.00902 1.8-0.018 2.73-0.0273 0.687-0.0116 1.37-0.0232 2.08-0.0352v2c2.77 0.922 4.38 1.12 7.23 1.1 0.802-0.00322 1.6-0.00645 2.43-0.00977 0.833-0.00838 1.67-0.0168 2.53-0.0254 1.27-0.00677 1.27-0.00677 2.56-0.0137 2.08-0.0118 4.17-0.0297 6.25-0.0488v2c2.78 0.925 4.44 1.13 7.3 1.13 0.865 0.00315 1.73 0.0063 2.62 0.00955 0.931-0.00202 1.86-0.00405 2.82-0.00613 1.44 0.00144 1.44 0.00144 2.91 0.0029 2.03 6.81e-4 4.07-0.00117 6.1-0.00534 3.11-0.00534 6.21-5.72e-5 9.32 0.00635 1.98-6.61e-4 3.95-0.00194 5.93-0.00391 1.39 0.00304 1.39 0.00304 2.81 0.00613 4.19-0.0152 8.11-0.0673 12.2-1.14v-2c1.12 0.0116 2.24 0.0232 3.39 0.0352 1.47 0.00938 2.95 0.0185 4.42 0.0273 0.738 0.00838 1.48 0.0168 2.24 0.0254 3.25 0.0147 5.85-0.0526 8.95-1.09v-2c0.996 0.0174 0.996 0.0174 2.01 0.0352 6.55 0.0838 6.55 0.0838 13-1.04v-2c3.3-0.33 6.6-0.66 10-1v-2c3.3-0.33 6.6-0.66 10-1v-2l6.15-0.586c0.61-0.137 1.22-0.273 1.85-0.414 0.33-0.66 0.66-1.32 1-2 3.06-0.625 3.06-0.625 6-1v-2c1.98-0.33 3.96-0.66 6-1v-2h6v-4h6v-3h7v-3h5v-3c1.98-0.33 3.96-0.66 6-1v-2c1.32-0.33 2.64-0.66 4-1v-2c1.65-0.33 3.3-0.66 5-1v-2h4v-3c1.98-0.33 3.96-0.66 6-1v-2c0.99-0.33 1.98-0.66 3-1v-2c2.31-0.33 4.62-0.66 7-1v-3h2v-3h3v-2h4v-4h5v-3h3v-3h3v-3h3c0.33-0.99 0.66-1.98 1-3 0.99-0.33 1.98-0.66 3-1v-3h3v-3h3v-3h3v-5h4v-4h2v-3h3v-2h3v-4h3c0.33-1.98 0.66-3.96 1-6h3v-3h3v-3c0.99-0.33 1.98-0.66 3-1v-3h2c0.33-1.65 0.66-3.3 1-5 1.49-0.495 1.49-0.495 3-1v-3h3v-5h3v-4h3v-6h4v-3h2v-6h3c0.33-1.98 0.66-3.96 1-6h2c0.33-0.99 0.66-1.98 1-3 0.66-0.33 1.32-0.66 2-1 0.658-3.03 0.658-3.03 1-6h2c0.33-1.98 0.66-3.96 1-6h3v-5h2c0.33-2.31 0.66-4.62 1-7 1.49-0.495 1.49-0.495 3-1v-5c1.49-0.495 1.49-0.495 3-1v-5c1.49-0.495 1.49-0.495 3-1v-8h3v-6c1.49-0.495 1.49-0.495 3-1v-5h4v-10h2c0.33-2.97 0.66-5.94 1-9h2v-7h-18v3c-1.09-0.0206-2.19-0.0412-3.31-0.0625-3.63-0.123-3.63-0.123-6.69 1.06v2c-0.949-0.0206-1.9-0.0412-2.88-0.0625-3.03-0.163-3.03-0.163-5.12 1.06v2c-2.31 0.33-4.62 0.66-7 1v2c-0.957 0.0735-0.957 0.0735-1.93 0.148-1.24 0.112-1.24 0.112-2.5 0.227-0.824 0.0696-1.65 0.139-2.5 0.211-1.02 0.205-1.02 0.205-2.07 0.414-0.33 0.66-0.66 1.32-1 2-1.67 0.333-3.33 0.667-5 1-0.33 0.66-0.66 1.32-1 2-3.06 0.625-3.06 0.625-6 1v3h-6v4h-9v2h-5v3h-7v3h-6c-0.33 0.99-0.66 1.98-1 3h-8v3h-7v3c-2.97 0.33-5.94 0.66-9 1v2c-2.97 0.33-5.94 0.66-9 1v2c-4.95 0.495-4.95 0.495-10 1v2c-2.97 0.33-5.94 0.66-9 1v2c-5.94 0.495-5.94 0.495-12 1v3h-12v3h-15v4h-19v2c-0.848-0.00786-0.848-0.00786-1.71-0.0159-2.55-0.0208-5.11-0.0338-7.66-0.0466-0.889-0.00838-1.78-0.0168-2.7-0.0254-1.28-0.00483-1.28-0.00483-2.58-0.00977-0.786-0.00524-1.57-0.0105-2.38-0.0159-2.05-0.0122-2.05-0.0122-3.97 1.11v2h-120v-3h-20v-2h-17v-4h-13v-3c-0.855-0.049-1.71-0.098-2.59-0.148-1.1-0.0748-2.21-0.15-3.35-0.227-1.1-0.0696-2.2-0.139-3.34-0.211-0.898-0.137-1.8-0.273-2.72-0.414-0.33-0.66-0.66-1.32-1-2-2.59-0.468-2.59-0.468-5.56-0.625-1.01-0.0748-2.02-0.15-3.07-0.227-0.782-0.049-1.56-0.098-2.37-0.148v-2c-3.3-0.33-6.6-0.66-10-1v-2c-2.97-0.33-5.94-0.66-9-1v-2c-2.96-1.48-5.74-1.06-9-1v-3h-7v-2c-2.71-1.35-5.01-1.07-8-1-0.33-0.99-0.66-1.98-1-3h-6v-3h-9v-3h-6v-3h-6v-2h-6v-4h-7v-3c-2.64-0.33-5.28-0.66-8-1v-2c-2.31-0.33-4.62-0.66-7-1v-2c-1.98-0.33-3.96-0.66-6-1v-2c-2.97-0.33-5.94-0.66-9-1l-1-3h-8c-0.33-0.99-0.66-1.98-1-3h-9v-2c-2.64-0.33-5.28-0.66-8-1v-2c-2.31-0.33-4.62-0.66-7-1zm110 246v16h-2v16h2v2h-2v3h2v6c0.99 0.33 1.98 0.66 3 1v3h3c0.33 0.99 0.66 1.98 1 3h3v3h7v3h5v3h6v4h3v2h7v3c2.64 0.33 5.28 0.66 8 1v2h7v-43h-3v-3h-3v-2h-7v-4c-0.804-0.124-1.61-0.248-2.44-0.375l-2.56-0.625-1-2c-0.825-0.165-1.65-0.33-2.5-0.5-0.825-0.165-1.65-0.33-2.5-0.5-0.33-0.66-0.66-1.32-1-2-3.03-0.658-3.03-0.658-6-1v-2c-2.48-0.495-2.48-0.495-5-1v-2c-2.31-0.33-4.62-0.66-7-1v-3h-3c-0.33-0.99-0.66-1.98-1-3h-6zm348 1v2c-4.46 0.495-4.46 0.495-9 1v2c-1.98 0.33-3.96 0.66-6 1v2c-1.32 0.33-2.64 0.66-4 1v2c-1.98 0.33-3.96 0.66-6 1v2c-1.98 0.33-3.96 0.66-6 1v3h-6v4h-6v2h-3v3h-3v43h7v-2l6.15-0.586c0.915-0.205 0.915-0.205 1.85-0.414l1-2c2.56-0.625 2.56-0.625 5-1v-2h6v-4h4v-3h7v-3h5v-3c1.98-0.495 1.98-0.495 4-1v-2h3v-3h2c1.16-4.14 1.14-8.14 1.13-12.4 9.57e-4 -0.811 0.00191-1.62 0.0029-2.46 6.79e-4 -1.71-0.00116-3.42-0.00534-5.13-0.00537-2.62-3.9e-5 -5.24 0.00635-7.87-6.61e-4 -1.66-0.00194-3.32-0.00391-4.98 0.00202-0.786 0.00405-1.57 0.00613-2.38 0.0733-4.01 0.0733-4.01-1.14-7.77h-3zm-101 43v2c-4.95 0.495-4.95 0.495-10 1v2c-4.95 0.33-9.9 0.66-15 1v2c-7.26 0.33-14.5 0.66-22 1v2h-52v-2c-6.93-0.33-13.9-0.66-21-1v-2c-4.95-0.33-9.9-0.66-15-1v-2c-1.6-0.196-3.21-0.381-4.81-0.562-0.893-0.104-1.79-0.209-2.71-0.316-2.61-0.278-2.61-0.278-5.48 0.879v46h3v3h9v3h13v4h15v2c13.9 0.495 13.9 0.495 28 1v2h15v-2c15.3-0.495 15.3-0.495 31-1v-2h15v-4h12v-3c1.09 0.0619 2.19 0.124 3.31 0.188 3.57 0.138 3.57 0.138 5.62-1.5 1.33-1.78 1.33-1.78 1.06-4.69h3v-43h-3v-3h-3zm-505 99v2h-9v3h-6v3h-6v3h-6v3c-1.98 0.33-3.96 0.66-6 1v2h-4v3c-1.98 0.33-3.96 0.66-6 1v2h-2v3c-2.31 0.33-4.62 0.66-7 1v3h-3c-0.33 0.66-0.66 1.32-1 2l-3 1v3h-3v4h-5v2h-4v3h-3v3h-3v3h-3v3h-3v3h-2v4h-4v3h-3c-0.33 1.65-0.66 3.3-1 5h-2l-1 3-2 1v3h-3c-0.33 1.98-0.66 3.96-1 6h-3v3h-2c-0.33 1.98-0.66 3.96-1 6h-3v6h-3v4h-2c-1.35 2.71-1.07 5.01-1 8h-3v4h-3v7h-2v8h-4c-0.124 0.969-0.248 1.94-0.375 2.94l-0.625 3.06c-0.66 0.33-1.32 0.66-2 1-0.465 1.9-0.465 1.9-0.625 4.06l-0.375 3.94h-2l-1 13h-2c-1.07 6.03-1.1 11.9-1 18h-2c-1.04 8.12-1.13 16.1-1.1 24.3 0.00187 1.35 0.00329 2.71 0.00429 4.06 0.00378 3.53 0.0136 7.06 0.0247 10.6 0.0103 3.61 0.0148 7.23 0.0198 10.8 0.0107 7.07 0.0277 14.1 0.0488 21.2h-2v13h2v9h-2v15h2c-0.0206 0.969-0.0412 1.94-0.0625 2.94-0.294 2.94-0.294 2.94 1.06 4.06 3.11 0.101 6.19 0.14 9.29 0.133 0.939 9.57e-4 1.88 0.00191 2.84 0.0029 1.99 6.82e-4 3.99-0.00118 5.98-0.00534 3.04-0.00532 6.08-7.19e-5 9.12 0.00635 1.94-6.61e-4 3.87-0.00194 5.81-0.00391 1.36 0.00304 1.36 0.00304 2.75 0.00613 0.857-0.00315 1.71-0.0063 2.6-0.00955 0.748-7.96e-4 1.5-0.00159 2.27-0.00241 2.8-0.152 5.58-0.665 8.35-1.13v-21h3v-47h4v-33h2v-22h3l0.148-3.25c0.075-1.4 0.151-2.79 0.227-4.19 0.0309-0.707 0.0619-1.41 0.0938-2.14 0.104-1.81 0.31-3.62 0.531-5.42 0.66-0.33 1.32-0.66 2-1 0.469-2.82 0.469-2.82 0.625-6.06 0.112-1.66 0.112-1.66 0.227-3.35l0.148-2.59h2c0.33-2.97 0.66-5.94 1-9h2c0.33-2.64 0.66-5.28 1-8h2c0.33-2.31 0.66-4.62 1-7h2c0.33-1.98 0.66-3.96 1-6h2c0.33-1.98 0.66-3.96 1-6 0.99-0.33 1.98-0.66 3-1v-5h3v-4h3v-5h3v-4h4v-2h2v-4h3v-3h3v-3c1.98-0.33 3.96-0.66 6-1v-2h3v-3h4v-3h6v-3h5c0.33-0.99 0.66-1.98 1-3 3.47-0.495 3.47-0.495 7-1v-2l8-1v-3h4v-3h3v-40h2v-5h-12zm858 0v2h-2v13h2v2h-2c-0.755 8.36-1.14 16.6-1 25h3v3h3v3c0.99 0.33 1.98 0.66 3 1 0.33 0.66 0.66 1.32 1 2 3.47 1.16 6.36 1.07 10 1v3h3v2c2.71 1.35 5.01 1.07 8 1v3h3c0.33 0.99 0.66 1.98 1 3h5c0.33 0.99 0.66 1.98 1 3h3v3h5v3h4v3h3v4h4v3h2v5h3v3h3v6h3c0.33 1.98 0.66 3.96 1 6h2v4h3v6h3c-0.0206 1.11-0.0412 2.23-0.0625 3.38-0.201 3.46-0.201 3.46 1.06 5.62h2c0.495 4.46 0.495 4.46 1 9h2c0.33 3.3 0.66 6.6 1 10h2c0.495 7.42 0.495 7.42 1 15h2c0.495 8.91 0.495 8.91 1 18 0.66 0.33 1.32 0.66 2 1 0.33 8.91 0.66 17.8 1 27h4v46h2v40c12.8 0.582 25.6 1.1 38.4 1.12 1.02 0.00451 2.04 0.00902 3.09 0.0137 1.42-0.0029 1.42-0.0029 2.87-0.00586 0.831-0.00113 1.66-0.00226 2.52-0.00342 2.33-0.0477 2.33-0.0477 5.15-1.13 1.12-3.37 1.13-5.92 1.13-9.48 0.00175-0.654 0.0035-1.31 0.00531-1.98 0.00441-2.17 0.00148-4.35-0.00189-6.52 6.75e-4 -1.53 0.00165-3.06 0.0029-4.59 0.00148-3.22-6.73e-4 -6.45-0.00534-9.67-0.0056-4.06-0.0024-8.11 0.00345-12.2 0.0217-17.9-0.166-35.7-1.13-53.6h-2c0.00524-0.589 0.0105-1.18 0.0159-1.78 0.021-2.72 0.0339-5.44 0.0466-8.15 0.00838-0.926 0.0168-1.85 0.0254-2.81 0.0205-5.84-0.334-11.5-1.09-17.3h-2c-0.33-3.63-0.66-7.26-1-11h-2c-0.33-3.96-0.66-7.92-1-12h-3v-8h-2v-7h-4v-6h-3v-6h-3v-6h-3v-6h-3v-4h-3v-6h-3c-0.33-1.98-0.66-3.96-1-6h-2v-2h-3c-0.495-3.46-0.495-3.46-1-7h-3v-3c-0.66-0.33-1.32-0.66-2-1-0.33-0.99-0.66-1.98-1-3h-3v-5h-2v-4h-4v-3h-3v-3h-3v-3h-3v-3h-4v-3h-3v-2h-3v-4h-5v-3h-4v-3h-3v-3c-1.65-0.33-3.3-0.66-5-1v-3h-4v-2c-1.98-0.33-3.96-0.66-6-1v-3h-6v-3h-3c-0.495-1.48-0.495-1.48-1-3h-6v-3h-6v-3h-6v-2c-2.97-0.495-2.97-0.495-6-1v-2h-13zm-999 337c-0.33 1.32-0.66 2.64-1 4h-2v2h2v59h-2v15h2v16h-2v3h3v4h2v-4h4v-3h5c0.33-0.99 0.66-1.98 1-3h4v-3l5-1v-2h3v-3l4-1v-2l5-1v-2l4-1v-2c0.804-0.124 1.61-0.248 2.44-0.375l2.56-0.625c0.33-0.66 0.66-1.32 1-2 0.99-0.33 1.98-0.66 3-1v-3h3v-31h2c1.16-3.48 1.11-6.19 1.1-9.86-0.00212-0.992-0.00212-0.992-0.00429-2-0.00559-2.11-0.0181-4.22-0.0309-6.33-0.00502-1.43-0.00958-2.86-0.0137-4.29-0.011-3.51-0.0283-7.01-0.0488-10.5h-3v-4h-49zm1098 0v65h3v3h3v3c0.99 0.33 1.98 0.66 3 1 0.495 0.516 0.99 1.03 1.5 1.56 1.51 1.78 1.51 1.78 4.5 1.44 0.33 0.99 0.66 1.98 1 3h2c0.33 0.99 0.66 1.98 1 3h3v2c1.98 0.33 3.96 0.66 6 1v3h3v3h7v3h2v3h6c0.495 3.46 0.495 3.46 1 7h5c0.78-2.77 1.13-5.23 1.14-8.11 0.00571-0.809 0.0114-1.62 0.0173-2.45 0.00112-0.879 0.00224-1.76 0.00339-2.66 0.00496-0.932 0.00993-1.86 0.015-2.82 0.0146-3.08 0.0214-6.16 0.0269-9.24 0.00575-2.14 0.0115-4.28 0.0173-6.42 0.0105-4.48 0.0164-8.97 0.0198-13.4 0.0055-5.75 0.0296-11.5 0.058-17.3 0.0186-4.42 0.0238-8.83 0.0254-13.3 0.00303-2.12 0.0111-4.24 0.0242-6.36 0.017-2.96 0.0152-5.92 0.00869-8.88 0.00921-0.881 0.0184-1.76 0.0279-2.67 0.118-4.38 0.118-4.38-1.77-8.15-2.24-1.76-3.72-1.64-6.55-1.61-1.52 5.44e-4 -1.52 5.44e-4 -3.08 0.0011-1.6 0.023-1.6 0.023-3.22 0.0465-0.98 0.00302-1.96 0.00604-2.97 0.00916-3.66 0.0157-7.33 0.0576-11 0.0963-8.19 0.0619-16.4 0.124-24.8 0.188z" fill="#fff"/>
<path transform="translate(1139,1302)" d="m0 0h18v2c2.97 0.33 5.94 0.66 9 1v3h3v3h3c0.495 8.91 0.495 8.91 1 18h2v192h-2c0.00524 0.933 0.0105 1.87 0.0159 2.83 0.102 21.1-0.13 42.1-1.02 63.2-1.98 0.33-3.96 0.66-6 1v6h-3v6h-28v-6h-2c-0.33-1.98-0.66-3.96-1-6h-3v-3c-0.99-0.33-1.98-0.66-3-1v-30h-2v-77h2v-163c0.99-0.33 1.98-0.66 3-1v-5h3v-3c0.969-0.124 1.94-0.247 2.94-0.375 1.52-0.309 1.52-0.309 3.06-0.625 0.33-0.66 0.66-1.32 1-2z" fill="#fff"/>
<path transform="translate(443,1302)" d="m0 0h15v2c2.97 0.33 5.94 0.66 9 1v3h3c0.495 4.45 0.495 4.45 1 9h3c0.0229 33.2 0.0405 66.4 0.0511 99.6 0.00125 3.92 0.00255 7.83 0.00387 11.8 2.62e-4 0.78 5.25e-4 1.56 7.95e-4 2.36 0.00435 12.6 0.0122 25.3 0.0214 37.9 0.00934 13 0.0149 25.9 0.0169 38.9 0.00137 8 0.00572 16 0.0138 24 0.0059 6.13 0.00654 12.3 0.00519 18.4 2.76e-4 2.52 0.00228 5.04 0.0061 7.56 0.00494 3.43 0.00379 6.86 0.00105 10.3 0.00291 1.01 0.00583 2.01 0.00883 3.05-0.00299 1.37-0.00299 1.37-0.00603 2.77 5.7e-4 1.19 5.7e-4 1.19 0.00115 2.4-0.124 2.05-0.124 2.05-1.12 5.05h-2v6c-0.99 0.33-1.98 0.66-3 1-0.33 0.99-0.66 1.98-1 3h-2c-0.33 1.98-0.66 3.96-1 6h-2v3h-28v-9h-3v-4h-3c-0.124-0.804-0.248-1.61-0.375-2.44-0.206-0.846-0.413-1.69-0.625-2.56-0.66-0.33-1.32-0.66-2-1v-264h3c-0.103-0.908-0.206-1.82-0.312-2.75 0.312-3.25 0.312-3.25 2.75-5.5 1.27-0.866 1.27-0.866 2.56-1.75 0.33-0.66 0.66-1.32 1-2 2.07-0.414 2.07-0.414 4.56-0.625 0.826-0.0748 1.65-0.15 2.5-0.227 0.957-0.0735 0.957-0.0735 1.93-0.148v-2z" fill="#fff"/>
<path transform="translate(714,111)" d="m0 0h21v3h6c0.33 2.31 0.66 4.62 1 7h2c0.33 1.98 0.66 3.96 1 6h2v15h-2c-0.33 1.98-0.66 3.96-1 6h-2c-0.33 0.99-0.66 1.98-1 3h-3v3h-3v2c-2.52 1.26-4.31 1.1-7.12 1.06-0.91-0.00902-1.82-0.018-2.76-0.0273-0.699-0.0116-1.4-0.0232-2.12-0.0352v4h-9v2h-7v3h-8v3h-7v3h-6v3h-5v3h-7v3c-1.98 0.33-3.96 0.66-6 1v2c-1.98 0.33-3.96 0.66-6 1-0.495 1.49-0.495 1.49-1 3h-3v2c-1.65 0.33-3.3 0.66-5 1-0.495 1.49-0.495 1.49-1 3h-3v3h-6v4h-2v2h-4v3h-3v3h-4v3c-2.48 0.495-2.48 0.495-5 1-0.495 1.49-0.495 1.49-1 3h-2c-0.495 1.49-0.495 1.49-1 3h-2v2c-0.99 0.33-1.98 0.66-3 1-0.598 0.825-1.2 1.65-1.81 2.5-2.66 3.04-4.24 3.23-8.19 3.5v2h-9v-2c-1.98-0.33-3.96-0.66-6-1v-2h-3v-3h-3c-0.33-0.99-0.66-1.98-1-3-0.66-0.33-1.32-0.66-2-1v-3h-3c-1.44-7.19-1.19-13.8 0-21h3v-3h3v-3c1.65-1.35 3.32-2.69 5-4 0.33-0.99 0.66-1.98 1-3h3v-3h3v-3h4v-3h2v-3h3v-3h3v-3h4v-2h3v-4h5v-3h4v-3h3v-3c0.804-0.124 1.61-0.248 2.44-0.375 0.846-0.206 1.69-0.412 2.56-0.625 0.495-0.99 0.495-0.99 1-2h3v-3h6v-3c1.98-0.33 3.96-0.66 6-1v-2c1.98-0.33 3.96-0.66 6-1v-2c1.98-0.33 3.96-0.66 6-1 0.495-1.49 0.495-1.49 1-3h6v-2c2.97-0.495 2.97-0.495 6-1v-2c4.46-0.495 4.46-0.495 9-1v-2h9v-4h10v-3h12v-3z" fill="#fff"/>
<path transform="translate(805 701)" d="m0 0c0.749-0.0025 1.5-5e-3 2.27-0.00757 8.93-0.0244 17.8 0.193 26.7 1.13v2c2.31 0.33 4.62 0.66 7 1v3h2v3h3v24h-3v6c-1.98 0.33-3.96 0.66-6 1v2c-1.49 0.495-1.49 0.495-3 1l-1 2h-67v-2c-1.65-0.33-3.3-0.66-5-1v-3h-4v-3h-3c-0.124-0.804-0.247-1.61-0.375-2.44-0.206-0.846-0.413-1.69-0.625-2.56-0.66-0.33-1.32-0.66-2-1v-18h3v-3h3v-3h4v-3c1.65-0.33 3.3-0.66 5-1v-2c13-0.847 26-1.11 39.1-1.12z" fill="#fff"/>
</svg>
